<svg width="300" height="300" xmlns="http://www.w3.org/2000/svg">
 <!-- Created with Method Draw - http://github.com/duopixel/Method-Draw/ -->
 <g>
  <title>background</title>
  <rect fill="none" id="canvas_background" height="302" width="302" y="-1" x="-1"/>
  <g display="none" overflow="visible" y="0" x="0" height="100%" width="100%" id="canvasGrid">
   <rect fill="url(#gridpattern)" stroke-width="0" y="0" x="0" height="100%" width="100%"/>
  </g>
 </g>
 <g>
  <title>Layer 1</title>
  <path d="m290.25,150.5c-0.5,0 -1,0 -1,0c0,0 -1.5,0 -2,0c0,0 -1.5,0 -2,0c0,0 -1.729401,-0.153275 -2,0.5c-0.191345,0.461945 -2,0.5 -2,0.5c-1,1 -2,1 -2,1c0,0 -0.84671,0.729401 -1.5,1c-0.461945,0.191345 -0.5,0 -0.5,0c-1.5,0 -2,0 -2,0c0,0 -1.646454,0.353546 -2,0c-0.353546,-0.353546 0.088135,-0.743134 -1,-1c-0.486633,-0.114883 -1,0 -1,-1c0,-0.5 0,-1 0,-2c0,-0.5 0,-1 0,-1c0,-1 -1.074677,-1.737137 -1.5,-2c-0.95105,-0.587784 -0.912201,-0.54895 -1.5,-1.5c-0.262878,-0.425323 0,-0.5 0,-1.5c0,0 0,-0.5 0,-1c0,-1 1,-1 1,-1.5c0,0 0.5,0 1,0c1,0 1.038055,0.191345 1.5,0c0.65329,-0.270599 0,-0.5 -0.5,-0.5c0,0 0,0 -1.5,0c-0.5,0 -1.085785,-0.414215 -2.5,1c-0.707092,0.707108 -2,1 -3,2c-1,1 -2.384583,2.211792 -3,3c-1.268707,1.624924 -2.824432,0.097885 -4,2c-0.262878,0.425323 -1,1 -1.5,2c-0.5,1 -0.5,1 -1.5,2c-1,1 -1.458801,0.693436 -2,2c-0.191345,0.461945 -0.5,1 -1,1c0,0 0,0 -1.5,0c-0.5,0 -0.58812,-0.743134 0.5,-1c0.973251,-0.229752 1,0 1.5,0c1.5,0 2,0 3.5,0c1,0 2.026764,-0.229752 3,0c1.088135,0.256866 1.538055,0.808655 2,1c1.306549,0.541199 1,1 1,1c0,0.5 -0.22403,0.211411 -1.5,1c-0.95105,0.587784 -2.5,2 -2.5,2c-2,0 -2,1 -3.5,1c-0.5,0 -0.193436,0.458801 -1.5,1c-0.461945,0.191345 -1,0 -1,0c0,1 0,2 0,3c0,1 0,1 0,2.5c0,0.5 -0.114883,2.013382 0,2.5c0.256866,1.08812 1.270599,1.346725 1,2c-0.191345,0.461945 -1,0 -1,0c-1.5,0 -2,1 -2,1c-2,1 -2,1 -3.5,1c-0.5,0 -0.5,1 -0.5,1c-1,1 -2,2 -2,2c0,0.5 -0.54895,1.412216 -1.5,2c-0.425323,0.262863 -0.41188,0.743134 -1.5,1c-0.486618,0.114883 -1,1 -1,1c0,0 0.060715,0.746735 -1.5,1c-0.493546,0.080093 -0.5,1 -0.5,1c0,0.5 -1,1 -2,2c0,0 -1,1 -1.5,1c-0.5,0 -0.5,1 -2.5,1c0,0 0.235931,0.559158 0,1c-0.850647,1.589462 -1.292892,1.292892 -2,2c-1.060654,1.060654 -2,0 -2,0c0,1 -1.5,1 -2,1c0,0 -0.585785,-1.414215 -2,0c-0.353546,0.353546 -1.5,1 -2,1c0,0 -1.5,0 -2,0c0,0 0.225418,0.477585 -1.5,1c-0.478546,0.144897 -0.5,0 -0.5,0c-1.5,0 -2,0 -2,0c-1.5,0 -2,0 -2,0c0,0 -1.5,0 -2,0c0,0 -2,-1 -2,-1c0,-1 -2,-3 -2,-4.5c0,-2 0.307449,-3.686005 -1,-5.5c-0.826904,-1.147263 -1,-2.5 -1,-4c0,-2 -0.923615,-2.52066 -1.5,-4.5c-0.442062,-1.518082 -0.5,-2.5 -0.5,-4c0,-1.5 0.743134,-3.41188 1,-4.5c0.344635,-1.459869 0.839813,-3.012909 1,-4c0.253265,-1.560715 0.5,-3 0.5,-3c0,-1 0,-2 0,-2c-0.5,-0.5 -0.5,-1 -0.5,-1c-1,-1 -1.729401,-0.846725 -2,-1.5c-0.191345,-0.461945 -1,-1.5 -1,-2c0,-0.5 0,-1.5 -0.5,-1.5c-0.5,0 -0.517029,0.344879 -4,0c-2.537109,-0.251221 -6.437958,-1.292999 -10.5,-2c-4.950516,-0.861633 -9.907791,-1.496231 -14,-2c-3.970032,-0.488739 -6,-0.5 -8,-0.5c0,0 -1.346725,-0.229401 -2,-0.5c-1.385818,-0.57402 -2.824432,0.902115 -4,-1c-0.262863,-0.425323 -1.902832,-1.224197 -4,-2c-1.933502,-0.71524 -2.769348,-1.303223 -4,-2c-1.793961,-1.015732 -2,-1 -3.5,-1c-0.5,0 -0.274582,-0.477585 -2,-1c-0.478546,-0.144897 -0.5,-0.5 -2.5,-1c0,0 -2,0 -2,-1c0,0 -1,-0.5 -1.5,-0.5c-0.5,0 -0.652237,0.265366 -2.5,-0.5c-1.306564,-0.541199 -2,-1.5 -2,-1.5c-1,-0.5 -1.5,-0.5 -2,-0.5c0,0 0,0 -2,-1c0,0 0.08812,-0.743134 -1,-1c-0.486618,-0.114883 -1,0 -1,0c-1.5,-1 -1.927856,-0.032928 -1.5,1c0.605072,1.460785 1.316727,3.511246 1.5,5c0.251892,2.046112 0.71022,4.042908 1,5c0.522415,1.725418 0.770248,2.026749 1,3c0.256866,1.08812 0.729401,1.846725 1,2.5c0.191345,0.461945 0,1.5 1,2.5c0,0 0,1 0,1.5c0,0.5 0.308655,1.538055 0.5,2c0.270599,0.653275 -0.288589,0.72403 0.5,2c0.587784,0.95105 1.243134,1.41188 1.5,2.5c0.229752,0.973251 0.5,1.5 0.5,2c0,1 1,2 1,3c0,1 0,2 0,3c0,1 0,1.5 0,2c0,2 0,3 0,4c0,0 0.28978,1.042908 0,2c-0.522415,1.725418 -1,3 -1,4c0,2 0.114883,3.513382 0,4c-0.513748,2.176254 -1,3 -1,3.5c0,0.5 0.262863,1.574677 0,2c-0.587784,0.95105 -1,0.5 -1,1.5c0,0.5 0,1 0,1c-1,1 -0.646454,1.646454 -1,2c-0.707108,0.707108 -1.412216,0.54895 -2,1.5c-0.262863,0.425323 0,0.5 0,1.5c0,0 -0.093002,0.346268 -1,1c-1.147263,0.826904 -1,1.5 -1,2c0,0 0,1 0,1c-1.5,0 -2,0 -2,0c0,0 -1.5,0 -2,0c0,0 -1.693436,-0.458801 -3,-1c-0.461937,-0.191345 -1,0 -1,0c-1.5,0 -2,0 -2,0c0,0 -1.5,0 -2,0c0,0 0,0 -2,0c0,0 -0.585785,1.414215 -2,0c-0.353554,-0.353546 0,-1 0,-0.5c0,0.5 0,0.5 0,1.5c0,0.5 0,1 0,2c0,0.5 0,1 0,2c0,0.5 0,1 0,1c0,1 0,2 0,2c0.5,0 1.292892,-0.707108 2,0c0.707108,0.707108 0.5,1 2,1c0.5,0 1.693436,0.458801 3,1c0.923882,0.38269 1,0 1.5,0c0.5,0 1.5,1 2,1c0.5,0 1.308655,0.038055 1.5,0.5c0.270599,0.653275 1,0.5 2,0.5c0,0 0.5,0 1,0c1,0 0.808655,-0.038055 1,-0.5c0.270599,-0.653275 2,-0.5 2,-0.5c0.5,-1 1.292892,-0.792892 2,-1.5c0.353546,-0.353546 1.149353,0.089462 2,-1.5c0.235931,-0.440842 0.5,-1 1,-1c1,0 0.65538,-0.267456 1.5,-1c1.194473,-1.035965 1.5,-1 3.5,-2c0,0 0.5,-0.5 2,-1c0,0 0.5,0 1,0c1,0 2.026749,0.229752 3,0c2.176254,-0.513748 2,-1 2,-1c0,1 0,3 0,5c0,1 0,3 0,4c0,1 0,2 0,3c0,2 0,4 -1,6c-1,2 -0.648499,4.306915 -2,5.5c-0.838165,0.739914 -1.824432,0.597885 -3,2.5c-0.788589,1.27597 0.579575,2.085815 0,4c-0.522415,1.725418 -1.737137,3.074677 -2,3.5c-0.587784,0.95105 -2,1.5 -2,2.5c0,0 -1.5,0 -2,0c-1.5,0 -2,0 -2,0c-2,-0.5 -2.694473,-1.035965 -1.5,0c0.84462,0.732544 1.260086,1.161835 2,2c1.193085,1.351501 2.792892,0.292892 3.5,1c0.353546,0.353546 -1,1 -2,2c0,0 -0.458801,0.693436 -1,2c-0.191345,0.461945 0,1 -1,2c0,0 0,1 -1,2c-1,1 -1,2.5 -1,3c0,0 0.262863,1.074677 0,1.5c-0.587784,0.95105 -1.5,0.5 -2,0.5c0,0 -0.22403,-0.788589 -1.5,0c-0.95105,0.587784 -0.5,1 -1.5,1.5c-1,0.5 -1,1.5 -1,1.5c-2,1 -2,2 -2,2c-1,0.5 -2,1 -2,2c0,0 -1.412216,0.04895 -2,1c-0.525734,0.850647 -0.093002,1.346283 -1,2c-1.14727,0.826904 -0.646446,1.646454 -1,2c-0.707108,0.707092 -2,1 -2,1.5c0,0.5 -1.038063,1.308655 -1.5,1.5c-0.653282,0.270599 -0.5,1 -0.5,2c0,0.5 -1.458801,0.693451 -2,2c-0.191345,0.461945 0,1 0,1c0,1 0,1.5 -1,2c0,0 0.451057,1.412201 -0.5,2c-0.425323,0.262878 -0.5,1 -0.5,2c0,0 -1,1 -2,2c0,0 0,1 0,1.5c0,0.5 0,0.5 0,1.5c0,0.5 0,1 0,1c0,1 0.5,1 1,1c1,0 1.076118,0.38269 2,0c1.306564,-0.541199 1.426369,-1.086548 2,-1.5c0.906998,-0.653717 0.85273,-0.673096 2,-1.5c0.906998,-0.653717 1.646446,-0.646454 2,-1c0.707108,-0.707092 1,-1 1,-2c0,0 1.412216,-0.54895 2,-1.5c0.262863,-0.425323 -0.14727,-0.673096 1,-1.5c0.906998,-0.653717 1,-1 1,-1c0.5,0 2,-1 2,-1c0,-0.5 0.346718,-0.729401 1,-1c0.923882,-0.38269 1,0 2,-1c0,0 0.885117,-0.513367 1,-1c0.256866,-1.088135 1.412216,-1.04895 2,-2c0.525726,-0.850647 0.426361,-1.086548 1,-1.5c0.906998,-0.653717 1,-0.5 1,-0.5c0.5,0 2,-1 2,-1c0,-0.5 0.346725,-0.729401 1,-1c0.923874,-0.38269 1,0 1.5,-1l0.5,0" id="svg_39" fill-opacity="null" stroke-opacity="null" stroke-width="9.5" stroke="#ffffff" fill="none"/>
  <path d="m103.25,9.5c0,0 0,0 0,0c0,0 0.5,1 0.5,1c0.5,0 1.5,0.5 1.5,1c0,0 0.5,1 1,1c1,0 1.346718,0.729402 2,1c0.923882,0.382684 1,1 1,1c0.5,0.5 1,1 1,1c0,1 0,1.5 1,2c0,0 0,1 0,1.5c0,0.5 0,0.5 0.5,1.5c0.5,1 0.792892,1.292892 1.5,2c0.353554,0.353554 0,1 0,1c0,0 0.646446,0.646446 1,1c0.353554,0.353554 1,1 1,2c0,0.5 0.538063,0.808659 1,1c1.306564,0.541197 0.808655,1.038061 1,1.5c0.270599,0.653282 1.292892,0.792892 2,1.5c0.707108,0.707108 0.5,1 0.5,2c0,0.5 0.146446,0.646446 0.5,1c0.707108,0.707108 1,1 1,1.5c0,0.5 0.074677,1.237133 0.5,1.5c0.951057,0.587784 1.5,1 1.5,2c0,0.5 0.646446,0.646446 1,1c0.707108,0.707108 -0.060661,1.939339 1,3c0.707108,0.707108 1.617317,1.076122 2,2c0.541199,1.306564 1.292892,1.292892 2,2c0.353546,0.353554 2,1 2,1c0,0 0.513382,0.885124 1,1c1.08812,0.25687 0.54895,1.412216 1.5,2c0.425323,0.262867 1.5,1 1.5,1c0.5,0 1,0 2,1c0,0 1.075485,-0.782688 2,0.5c0.292358,0.405621 0.939346,-0.560661 2,0.5c0.707108,0.707108 0.852737,1.173096 2,2c1.813995,1.307453 2.852737,2.173096 4,3c1.813995,1.307453 3.173096,1.85273 4,3c0.653732,0.906998 1.412216,0.548943 2,1.5c0.262863,0.425327 -0.45105,1.912216 0.5,2.5c0.425323,0.262863 1.5,1 1.5,1c0.5,1 0.693436,1.458801 2,2c0.461945,0.191345 1,1 1,2c0,0.5 0,1 0,1c0,1 0.153275,1.729401 -0.5,2c-0.461945,0.191345 -0.5,0 -0.5,0c-1.5,0 -2,0 -2,-0.5c0,-0.5 -0.846268,-0.593002 -1.5,-1.5c-0.413452,-0.573631 -1.574677,-0.737137 -2,-1c-0.95105,-0.587784 -0.153275,-1.229401 0.5,-1.5c0.923874,-0.382683 0.91188,-0.243126 2,-0.5c0.973251,-0.229752 1,0 1.5,0c1.5,0 1.774582,-0.477585 3.5,-1c0.478546,-0.14489 1,-1 2,-2c0,0 0,-0.5 0,-1c0,-1 0.426361,-1.086548 1,-1.5c0.906998,-0.653725 0.65538,-0.767464 1.5,-1.5c1.194473,-1.035965 1.5,-0.5 1.5,-0.5c0.5,-0.5 1,-0.5 2,-1.5c0.5,-0.5 0.04895,-1.412216 1,-2c0.850647,-0.52573 1.08812,-0.74313 0,-1c-0.973251,-0.229752 -1,0 -1,0c-1.5,0 -1.774582,-0.477585 -3.5,-1c-0.478546,-0.144894 -0.439285,-0.746731 -2,-1c-0.493546,-0.08009 -0.5,0 -0.5,0c-1,0 -2,-1 -2,-1c0,-0.5 -1.5,-1 -2,-1c0,0 -0.22403,0.788597 -1.5,0c-0.95105,-0.587784 -0.41188,-1.24313 -1.5,-1.5c-0.973251,-0.229752 -1,-0.5 -1,-0.5c-1.5,0 -2,0 -2,0c-1.5,-1 -1.646454,-1.646446 -2,-2c-1.060654,-1.060661 -2,0 -2,0c0,-1 -1.038055,-0.808659 -1.5,-1c-0.653275,-0.270599 -0.5,-1 -0.5,-1c0,-1 -0.855103,-1.021454 -1,-1.5c-0.522415,-1.725422 -0.737137,-1.574673 -1,-2c-0.587784,-0.951057 -1.646454,-0.146446 -2,-0.5c-0.707108,-0.707108 -1.5,-1.5 -2,-2c0,0 -1.729401,-0.846718 -2,-1.5c-0.191345,-0.461941 -1,-0.5 -1,-1.5l-0.5,0l-0.5,-0.5" id="svg_37" fill-opacity="null" stroke-opacity="null" stroke-width="9.5" stroke="#ffffff" fill="none"/>
  <path d="m271.75,142.5c-0.5,0 -0.5,0 -0.5,0c-1.5,0 -1.911865,-1.243134 -3,-1.5c-0.486633,-0.114883 -1,0 -1,0c-1.5,-0.5 -2,-0.5 -2,-0.5c-1.5,0 -2,-1 -2,-1c-2,-0.5 -2.824432,-0.097885 -4,-2c-0.262878,-0.425323 -1.5,-1 -2,-1c0,0 -1,-1 -1.5,-1.5c-0.5,-0.5 -0.673096,-0.352737 -1.5,-1.5c-0.653732,-0.906998 -0.737137,-2.074677 -1,-2.5c-0.587784,-0.95105 -1.646454,-0.146454 -2,-0.5c-0.707108,-0.707108 0.176254,-1.486252 -2,-2c-1.459869,-0.344635 -1.474274,-0.149353 -2,-1c-0.587784,-0.951057 -2,-0.5 -2,-1c0,0 -1.5,0 -2,-1c0,0 -1,-0.5 -1.5,-0.5c-0.5,0 -0.5,-0.5 -2,-0.5c-0.5,0 -0.5,-1 -1.5,-1.5c-1,-0.5 -1,-1.5 -3,-2.5c0,0 -1,-1 -1.5,-1.5c-0.5,-0.5 0.025726,-0.649345 -0.5,-1.5c-0.587784,-0.951057 -1.646454,-0.646446 -2,-1c-0.707108,-0.707108 0.306564,-1.458801 -1,-2c-0.461945,-0.191345 -0.707642,-1.094376 -1,-1.5c-0.924515,-1.282684 -2,-0.5 -2,-0.5c-2,-1.5 -2,-1.5 -4,-2c0,0 0,0 -2,-1c0,0 -0.093002,-0.346275 -1,-1c-1.147263,-0.826904 -0.737137,-1.074677 -1,-1.5c-0.587784,-0.951057 -2,-1.5 -2,-1.5c0,-0.5 -1.074677,-0.737137 -1.5,-1c-0.95105,-0.587784 -0.146454,-1.646446 -0.5,-2c-0.707108,-0.707108 -1.5,0 -2,-1c0,0 -0.093002,-0.346275 -1,-1c-1.147263,-0.826904 -1,-1 -1,-1c0.5,1 1.076126,0.617317 2,1c0.653275,0.270599 1.292892,1.292892 2,2c0.353546,0.353554 1.770248,1.026749 2,2c0.256866,1.088127 1,1 2,2c0,0 0.538055,0.808655 1,1c1.306564,0.541199 1.038055,0.808655 1.5,1c0.653275,0.270599 0.792892,0.292892 1.5,1c0.707108,0.707108 1,2 1,2c1,1 1.086548,1.426369 1.5,2c0.653732,0.906998 1.5,1 1.5,1.5c0,0.5 0.146454,1.146446 0.5,1.5c0.353546,0.353554 0.792892,0.292892 1.5,1c0.707108,0.707108 0.038055,0.808655 0.5,1c0.653275,0.270599 0.792892,1.292892 1.5,2c0.353546,0.353554 1,0 2,0c0,0 1,1 2,1c0,0 0.5,1 1,1c1,0 1.5,1 2,1c1,0 1,1 1.5,1c0.5,0 1.308655,0.038063 1.5,0.5c0.270599,0.653282 1.149353,-0.025734 2,0.5c0.95105,0.587784 2,1 2.5,1l0.5,0l1,1" id="svg_26" fill-opacity="null" stroke-opacity="null" stroke-width="9.5" stroke="#ffffff" fill="none"/>
  <path d="m110.25,22.5c1,1 1,2 1.5,3c0,0 0,1 0.5,2c0,0 0,1 0,1.5c0,0.5 0,0.5 0,1.5c0,1 0,1 0,2c0,0.5 0,1 0,1c0,1 0,2 0,2c0,1 0,1.5 0,2c0,0 0,1.5 0,2c0,1 0,1.5 0,2c0,1 0,1.5 0,2c0,0 0,1 0,1c0,0.5 0,1 0,1c0,1 0,1.5 0,2c0,0 0,1.5 0,2c0,1 0,2 0,2c0,1.5 0,2 0,3.5c0,0.5 0,2 0,3.5c0,1 0,2.5 0,3c0,1.5 0,2 0,4c0,1 0,2 0,2c0,1.5 0,2 0,2c0,1.5 0,2 0,2c1,1.5 1,2 1,3c0,1 0,1 0,2.5c0,0.5 0,2 0,3.5c0,1 0,2 0,3c0,1.5 0,2 0,3.5c0,0.5 0,2 0,2.5c0,1.5 0,3 0,4c0,1.5 0,3 0,4c0,2 0,4 0,5.5c0,2 0,4 0,6c0,1.5 0,2.5 0,4.5c0,1 0,2 0,2c0,1 -1,2 -2,2c-2,0 -4,1 -5.5,1c-2,0 -2.5,0 -1.5,0c1,0 4,1 7,1c2.5,0 4.5,2 4.5,2c0,1 0,1.5 0,2c0,0 0,1 0,1c-0.5,1 -0.117317,2.076118 -0.5,3c-0.541199,1.306564 -2,1 -2,1c-1.5,0 -2,0.5 -2,1c0,1.5 0,2 0,2c-1,1 -1.086548,1.426361 -1.5,2c-0.653725,0.906998 -0.5,1.5 -0.5,2c0,1 0,1.5 0,2c0,1 0,1.5 0,2c0,0 0,1 0,2c0,0 0,1.5 0,2c0,2 0,2 0,3.5c0,0.5 0,2 0,2.5c0,1 0,1.5 0,2c0,1 0,1.5 0,2c0,1 0,1.5 0,2c0,1.5 0,2 0,3.5c0,0.5 0,2 0,2.5c0,1.5 0,2 0,4c0,1.5 0,2 0,4c0,1.5 0,2 0,3.5c0,0.5 0,2.5 0,3.5c0,1 0,2 0,2.5c0,0.5 0,1.5 0,2.5c0,0 0,1 0,2c0,1.5 -1,2 -1,3c0,1 0,2.5 0,3c0,1.5 0,2 0,3c0,0.5 0,1 0,2.5c0,0.5 0,2 0,2.5c0,1 1,2 1,3.5c0,0.5 0,1.5 0,2.5c0,1 0,2 0,3c0,1 0,2.5 0,3c0,1.5 0,2 0,3.5c0,0.5 0,2.5 0,4c0,1.5 0,2.5 0,4c0,0.5 0,2 0,2.5c0,1 0,1.5 0,2c0,1 0,1.5 0,2c0,1 0,2 0,3.5c0,0.5 0,2 0,2.5c0,1 0,2 0,3c0,1 0,2 0,3c0,1 0,2 0,3c0,1 0,2 0,3c0,1.5 0,2 0,3.5c0,1.5 0,2 0,2.5c0,1.5 -0.229752,2.026749 0,3c0.256874,1.08812 0.729401,1.84671 1,2.5c0.191345,0.461945 1,1.5 1,2c0,0.5 0,0.5 0,1.5c0,0.5 0,1 0,1c0,1.5 0,2 0,3c0,1 0,1 0,2.5c0,0.5 0,2 0,2.5c0,1.5 0,2 0,3c0,1 0,1 0,2c0,0.5 0,1 0,2c0,1 0,1 0,2c0,0.5 -0.262863,0.925323 0,0.5c0.587784,-0.95105 1.85273,-0.673096 3,-1.5c0.906998,-0.653717 2,-1 3,-1c0.5,0 2,-1 2,-1c0,-0.5 -0.153725,-1.093018 0.5,-2c0.413452,-0.573639 0.958801,-0.693451 1.5,-2c0.191345,-0.461945 -0.153282,-0.729401 0.5,-1c0.461937,-0.191345 0.792892,-0.292908 1.5,-1c0.707108,-0.707092 1.149345,-0.410553 2,-2c0.235931,-0.440826 0.538063,-0.808655 1,-1c1.306564,-0.541199 0.911873,-1.243134 2,-1.5c0.973251,-0.229767 1,-0.5 1.5,-0.5c0.5,0 2,-1 4,-1.5c2,-0.5 3.686005,-0.192535 5.5,-1.5c0.573639,-0.413452 2.021454,-0.855103 2.5,-1c1.725418,-0.52243 1.346725,-1.729401 2,-2c0.461945,-0.191345 1.453171,-1.551697 2,-2c1.394165,-1.142944 2.649353,-1.474274 3.5,-2c0.95105,-0.587784 1.412216,-1.04895 2,-2c0.525726,-0.850647 0.426361,-1.086548 1,-1.5c0.906998,-0.653732 1.021454,-1.355103 1.5,-1.5c1.725418,-0.522415 1.148499,-1.306915 2.5,-2.5c0.838165,-0.739914 2.149353,0.089462 3,-1.5c0.235931,-0.440842 0.538055,-0.808655 1,-1c1.306564,-0.541199 1.346725,-1.729401 2,-2c0.923874,-0.38269 2.412216,-0.54895 3,-1.5c0.262863,-0.425323 1.076126,-0.11731 2,-0.5c1.306564,-0.541199 1.91188,-1.743134 3,-2c0.973251,-0.229752 0.852737,-0.173096 2,-1c0.906998,-0.653732 1.076126,-0.61731 2,-1c1.306564,-0.541199 1.5,-1.5 2,-2c1,-1 1.346725,-1.729401 2,-2c0.923874,-0.38269 1.021454,-0.855103 1.5,-1c1.725418,-0.522415 1.538055,-1.808655 2,-2c0.653275,-0.270599 1.5,-1 1.5,-2c0,-0.5 0.021454,-0.855103 0.5,-1c1.725418,-0.522415 1.308655,-1.538055 1.5,-2c0.541199,-1.306564 1.292892,-1.292892 2,-2c0.353546,-0.353546 2,-1 2,-1c0.5,-0.5 1.076126,-0.61731 2,-1c1.306564,-0.541199 1.91188,-1.743134 3,-2c0.973251,-0.229752 1,0 1,0c1,-1 2,-1.5 2,-1.5c0,-0.5 1.149353,0.089462 2,-1.5c0.471863,-0.881668 0.648499,-1.306915 2,-2.5c0.838165,-0.739914 1.410538,-1.149353 3,-2c0.881668,-0.471863 1.538055,-0.308655 2,-0.5c1.306564,-0.541199 1.426361,-1.086548 2,-1.5c0.906998,-0.653732 0.54895,-0.912216 1.5,-1.5c0.425323,-0.262863 1.385117,-0.513382 1.5,-1c0.256866,-1.08812 1.412216,-0.54895 2,-1.5c0.262863,-0.425323 1.149353,0.089462 2,-1.5c0.235931,-0.440842 2,-1 2,-1c1,-1 2,-1.5 2,-2c0,0 1.292892,-0.292892 2,-1c0.353546,-0.353546 0.076126,-0.61731 1,-1c1.306564,-0.541199 1.5,-1 3,-2c0,0 0.72403,0.788589 2,0c0.95105,-0.587784 1.646454,-1.646454 2,-2c1.414215,-1.414215 2.346725,-1.229401 3,-1.5c0.923874,-0.38269 2,-0.5 3,-0.5c0,0 1.412216,-0.54895 2,-1.5c0.262863,-0.425323 0.5,-0.5 2,-0.5c0,0 0.426361,-1.086548 1,-1.5c0.906998,-0.653732 1.04895,-0.912216 2,-1.5c0.850647,-0.525726 1.146454,-0.646454 1.5,-1c0.707108,-0.707108 0.5,-1 1.5,-2c0,0 1.412216,-0.54895 2,-1.5c0.262863,-0.425323 0.426361,-1.586548 1,-2c0.906998,-0.653732 1,-1.5 2,-2c1,-0.5 1.426361,-1.586548 2,-2c0.906998,-0.653732 1.538055,-1.308655 2,-1.5c1.306564,-0.541199 1.824432,-0.097885 3,-2c0.525726,-0.850647 0.559174,-0.764069 1,-1c1.589447,-0.850647 1.538055,-1.808655 2,-2c1.306549,-0.541199 0.84671,-1.729401 1.5,-2c0.461945,-0.191345 1.308655,-1.038055 1.5,-1.5c0.270599,-0.653275 1.808655,-1.538055 2,-2c0.270599,-0.653275 1.458801,-0.193436 2,-1.5c0.191345,-0.461945 0.939331,0.060654 2,-1c0.707092,-0.707108 0.426361,-1.086548 1,-1.5c0.906982,-0.653732 1,-0.5 1,-0.5c1,-1 1.646454,-1.646454 2,-2c0.707092,-0.707108 1.54895,-0.412216 2.5,-1c0.425323,-0.262863 1.5,-0.5 1.5,-0.5c0,0 1,-0.5 2,-0.5c0.5,0 2,-1 2,-1c0,-0.5 1,-1 2,-1c0,0 2.226532,0.39595 2,-1c-0.179077,-1.103592 -1.5,-0.5 -2,-1c0,0 -1.292908,-0.292892 -2,-1c-0.353546,-0.353546 -1,-1 -2,-1c0,0 -1.5,0 -2,-1c0,0 0,-0.5 -2,-1c0,0 -1,-1 -1.5,-1c-0.5,0 -0.5,-0.5 -0.5,-0.5c-1.5,-0.5 -2,-0.5 -2,-0.5c-1.5,0 -2,0 -2,0c0,-1 -1.646454,-0.646454 -2,-1c-0.353546,-0.353546 -1,-1 -2,-1c0,0 0,0 -2,-1c0,0 0.06073,-0.746735 -1.5,-1c-0.49353,-0.080093 -0.806915,0.351501 -2,-1c-0.739929,-0.838165 -1.381958,-0.263931 -2.5,-2.5c-0.223602,-0.44722 -1.074677,-0.237137 -1.5,-0.5c-0.95105,-0.587784 -0.41188,-1.743134 -1.5,-2c-0.486618,-0.114883 -0.693436,-0.458801 -2,-1c-0.923874,-0.38269 -1.114182,0.07402 -2.5,-0.5c-0.653275,-0.270599 -0.5,-0.5 -2,-0.5c-0.5,0 -0.274582,-0.477585 -2,-1c-0.478546,-0.144897 -0.5,-0.5 -2.5,-1c0,0 -2,-1 -4,-2c0,0 -2,-1 -4,-1.5c-2,-0.5 -3.5,-2 -5,-3.5c-1,-1 -4.146835,-2.736641 -7,-4.5c-2.126633,-1.314331 -1.646454,-2.146446 -2,-2.5c-0.707108,-0.707108 -1,-1 -1.5,-1.5c-0.5,-0.5 -0.028137,-0.618324 -0.5,-1.5c-0.850647,-1.589462 -2,-2 -3,-2.5c-1,-0.5 -2.743134,-1.411873 -3,-2.5c-0.229752,-0.973251 -1.474274,-2.149345 -2,-3c-0.587784,-0.951057 -1.074677,-0.737137 -1.5,-1c-0.95105,-0.587784 -0.20546,-3.346191 -2.5,-5c-1.813995,-1.307449 -4.881973,-2.263931 -6,-4.5c-0.223602,-0.447212 -1.808655,-2.038063 -2,-2.5c-0.541199,-1.306564 -2,-1.5 -2,-2c0,0 -1.412216,-0.548943 -2,-1.5c-0.262863,-0.425323 -1.852737,-0.673096 -3,-1.5c-0.906998,-0.653725 -2,-1 -3,-2c0,0 -1.038055,-0.308655 -1.5,-0.5c-0.653275,-0.270599 -0.352737,-0.673096 -1.5,-1.5c-0.906998,-0.653725 -1,-1 -1,-1c-2,-1 -2.731293,-0.375076 -4,-2c-0.615417,-0.788208 -2,-2 -2,-2c-2,-1.5 -2,-2 -3,-3c-1,-1 -1,-2 -3,-3c0,0 -1.033005,-1.438828 -2,-2c-1.559235,-0.904861 -2,-2 -4,-3c-1,-0.5 -2.105835,-0.857063 -3.5,-2c-0.546829,-0.448296 -1.067322,-1.405724 -2.5,-2.5c-1.256546,-0.95974 -1.415283,-0.688759 -2,-1.5c-0.924515,-1.282688 -2,-1 -2,-1c-1.5,0 -2,-1 -2,-1c-1.5,-0.5 -1.646454,-0.646446 -2,-1c-1.414215,-1.414215 -1.693436,-0.458805 -3,-1c-0.461945,-0.191341 -0.646454,-0.646446 -1,-1c-1.414215,-1.414215 -3,-1 -4,-1.5c-1,-0.5 -2,-1.5 -3,-2c-1,-0.5 -2.412216,-1.048943 -3,-2c-0.262863,-0.425327 0,-0.5 -1,-1.5c-0.5,-0.5 -0.852737,-1.173096 -2,-2c-0.906998,-0.653725 -1.881973,-0.263931 -3,-2.5c-0.223602,-0.447212 -1.737137,-1.574673 -2,-2c-0.587784,-0.951057 -1.707642,-1.594379 -2,-2c-0.924515,-1.282688 -2,-1.5 -3,-2c-1,-0.5 -0.693436,-0.958805 -2,-1.5c-0.461937,-0.191341 -1,-0.5 -1,-1c0,0 -1.737137,-1.074673 -2,-1.5c-0.587784,-0.951057 -2,-0.5 -2,-1.5c0,0 -1.074677,-0.737133 -1.5,-1c-0.951057,-0.587784 -0.5,-2 -1.5,-3c-1,-1 -0.617317,-1.07612 -1,-2c-0.541199,-1.306562 -2,-2 -2,-2l0,-0.5l-1,-0.5" id="svg_25" fill-opacity="null" stroke-opacity="null" stroke-width="9.5" stroke="#ffffff" fill="none"/>
  <path d="m165.25,55.5c-1,-0.5 -1.5,-1 -2,-1c0,0 -0.22403,0.788597 -1.5,0c-0.95105,-0.587784 -0.146454,-1.146446 -0.5,-1.5c-1.060654,-1.060661 -2,0 -2,-0.5c0,0 -1.646454,0.353554 -2,0c-0.707108,-0.707108 -1,-1.5 -1.5,-1.5c-0.5,0 -0.5,-0.5 -2,-0.5c-0.5,0 -0.352737,-0.173096 -1.5,-1c-0.906998,-0.653725 -1,-1 -1,-1c-1.5,-1 -1.808655,-1.538059 -2,-2c-0.541199,-1.306564 -1.458801,-0.693436 -2,-2c-0.38269,-0.923878 0.191345,-1.538059 0,-2c-0.541199,-1.306564 -2,-2 -2,-2c0,-1 -0.808655,-1.038059 -1,-1.5c-0.270599,-0.653282 -1,-0.5 -1,-0.5l0,0l-1,-1l-0.5,0" id="svg_24" fill-opacity="null" stroke-opacity="null" stroke-width="9.5" stroke="#ffffff" fill="none"/>
  <path d="m109.25,13c0.5,0.5 1,0.5 2,1.5c0,0 1.38459,1.211795 2,2c1.268707,1.624928 1.548943,1.412214 2.5,2c0.425323,0.262865 1.346718,0.729403 2,1c0.461937,0.191341 1.5,1 1.5,1c0,0 1.412216,-0.451057 2,0.5c0.262863,0.425325 -0.451057,0.912214 0.5,1.5c0.425323,0.262865 0.912216,0.048943 1.5,1c0.525734,0.850651 -0.306564,1.458803 1,2c0.923882,0.382683 1,1 1,1.5c0,0.5 0.346275,0.593004 1,1.5c0.826904,1.14727 1.074677,1.737135 1.5,2c0.95105,0.587786 1.270248,1.026751 1.5,2c0.256866,1.088127 0.857056,1.105839 2,2.5c0.448303,0.546837 1.173096,0.35273 2,1.5c0.653732,0.906998 1,1 2,2c0.5,0.5 1.458801,0.693436 2,2c0.38269,0.923878 -0.45105,1.412216 0.5,2c0.425323,0.262867 1.308655,0.538059 1.5,1c0.541199,1.306564 2,1.5 2,2c0,0 1.076126,0.617317 2,1c0.653275,0.270599 1.292892,0.292892 2,1c0.707108,0.707108 0.693436,2.458805 2,3c0.923874,0.382683 1.54895,1.412216 2.5,2c1.27597,0.788597 2.038055,0.808659 2.5,1c1.306564,0.541195 1,1 1,1c1,0.5 2,1 2,1c0,1 0.693436,1.458805 2,2c0.461945,0.191341 1,1 2,1c0,0 0.5,0 2,1c0,0 0.5,0 2,1c0,0 2,1 2,1c1,1 1.693436,1.458805 3,2c0.923874,0.382683 1.298691,-0.051464 3,1c0.95105,0.587784 1,2 2.5,2.5c1.5,0.5 1.521454,1.35511 2,1.5c1.725418,0.522415 1.04895,1.412216 2,2c0.425323,0.262863 1.04895,0.412216 2,1c0.425323,0.262863 1.576126,0.617317 2.5,1c1.306564,0.541199 1.04895,1.412216 2,2c0.850647,0.525734 1,0 2,1c1,1 1.72403,0.211403 3,1c0.95105,0.587784 0.852737,1.173096 2,2c0.906998,0.653725 1.54895,1.412216 2.5,2c0.425323,0.262863 1.260086,0.161835 2,1c1.193085,1.351501 2,1 3.5,2c0,0 0.806915,0.648499 2,2c0.739914,0.838165 1.906326,2.103401 3,3c1.394165,1.142937 2.906326,2.103401 4,3c1.394165,1.142937 3,2 3,2c1,1 2,1 2,1c1,1 2.021454,1.85511 2.5,2c1.725418,0.522415 2.038055,1.808655 2.5,2c1.306564,0.541199 2,2 3,3c1,1 2,1 3,2c1,1 1,1 3,2c0,0 0.5,1 2,1c0,0 1.075485,-0.282684 2,1c0.584717,0.811241 0.5,1 2,2c0,0 1.075485,0.217316 2,1.5c0.292358,0.405624 -0.45105,0.912216 0.5,1.5c0.425323,0.262863 2.038055,0.808655 2.5,1c1.306564,0.541199 2.076126,1.617317 3,2c1.306564,0.541199 1.953171,1.551704 2.5,2c1.394165,1.142937 1.398499,1.12825 2,1.5c1.345001,0.831253 1.576126,1.117317 2.5,1.5c1.306564,0.541199 1.440765,1.095139 3,2c0.966995,0.561172 1.693436,1.458801 3,2c0.923874,0.382683 0.693436,0.458801 2,1c0.923889,0.382683 1.021454,0.85511 1.5,1c1.725433,0.522415 2.324432,0.097885 3.5,2c0.525726,0.850647 2.161835,1.760086 3,2.5c1.351501,1.193085 1.693451,1.958801 3,2.5c0.923889,0.38269 2.440765,1.095139 4,2c1.93399,1.122345 2.5,1 4,2c0,0 0.04895,0.412216 1,1c0.850647,0.525726 1.806915,-0.351501 3,1c0.739929,0.838165 1.808655,1.538055 2,2c0.541199,1.306564 3.0755,0.717316 4,2c0.584717,0.811249 1,2 2,2c0,0 0.021454,0.855103 0.5,1c1.725433,0.522415 1.5,2 1.5,2c0.5,1 1,1 0.5,1l-0.5,1" id="svg_23" fill-opacity="null" stroke-opacity="null" stroke-width="9.5" stroke="#ffffff" fill="none"/>
  <line stroke-linecap="undefined" stroke-linejoin="undefined" id="svg_13" y2="292.5" x2="107.25" y1="14.5" x1="105.75" stroke-width="9.5" stroke="#ffffff" fill="none"/>
  <g id="svg_8">
   <line y1="0" stroke="#000" stroke-linecap="undefined" stroke-linejoin="undefined" id="svg_1" y2="300" x2="100" x1="100" stroke-width="9.5" fill="none"/>
   <line y1="0" stroke-linecap="undefined" stroke-linejoin="undefined" id="svg_2" y2="150" x2="300" x1="100" fill-opacity="null" stroke-opacity="null" stroke-width="9.5" stroke="#000" fill="none"/>
   <line stroke-linecap="undefined" stroke-linejoin="undefined" id="svg_3" y2="150" x2="300" y1="300" x1="100" fill-opacity="null" stroke-opacity="null" stroke-width="9.5" stroke="#000" fill="none"/>
  </g>
  <path d="m119.25,45.5c0,0 0,2 0,3.5c0,0.5 0,2.5 0,4c0,1.5 0,2.5 0,4c0,1.5 0,2.5 0,4c0,1.5 0.146446,2.146446 0.5,2.5c1.060661,1.060661 0,2 0,2c0,1.5 0,2 0,4c0,1 0,2 0,3.5c0,1.5 0,2.5 0,3.5c0,1 0,2.5 0,4.5c0,1.5 0,3.5 0,6c0,2.5 0,4.5 0,6.5c0,3 -0.134277,5.538445 0.5,7.5c0.828423,2.561974 0.753654,5.512169 1,8c0.251221,2.537102 0.748779,5.962898 1,8.5c0.197075,1.990265 0,5 0,7.5c0,2 1,4 1,5.5c0,1 0,2.5 0,3c0,2 0.243126,2.91188 0.5,4c0.459503,1.946503 0.5,4 0.5,5.5c0,1.5 0,2.5 0,4c0,0.5 0,2.5 0,4c0,1.5 0,2.5 0,4.5c0,2 -0.486259,3.823746 -1,6c-0.689262,2.919754 0.480545,5.038742 0,8c-0.506538,3.121445 -1,5 -1,8c0,2 0,4 0,6c0,2 0,4 0,6c0,1 0.229752,2.026749 0,3c-0.256874,1.08812 -1,2 -1,3c0,0 -0.85511,1.521454 -1,2c-0.522415,1.725418 -1,3 -1,4c0,1.5 -1,2 -1,3.5c0,1.5 -0.743126,2.41188 -1,3.5c-0.229752,0.973251 -0.161835,2.260086 -1,3c-1.351501,1.193085 -1,2 -1,3.5c0,1.5 -1,2.5 -1,4c0,1.5 0,2.5 0,4c0,1.5 0,2.5 0,3.5c0,1 0,2.5 0,3c0,2 0,3.5 0,5c0,1 0,2 0,3c0,0 0.451057,1.412216 -0.5,2c-0.425323,0.262863 -0.5,1 -0.5,1.5c0,0.5 0,1.5 0,2c0,0.5 0,1.5 0,2.5c0,0 -1,1 -1,1.5c0,0.5 0,1.5 0,2.5c0,1 0,2 0,3.5c0,0.5 0,1.5 0,2c0,0.5 0,0.5 0,2c0,0.5 0,0.5 0,1.5c0,1 0,2 0,2.5c0,0.5 1,0.5 1,1.5c0,0.5 -0.707108,1.292908 0,2c0.353554,0.353546 0.346718,0.729401 1,1c0.923882,0.38269 1,1 1,1.5l0,0.5" id="svg_27" fill-opacity="null" stroke-opacity="null" stroke-width="9.5" stroke="#ffffff" fill="none"/>
  <path d="m115.25,195.5c0,-1 0,-2 0,-3c0,-1 0,-2 0,-3c0,-1 0,-2 0,-3c0,-1 0,-2 0,-3c0,0 0,-0.5 0,-1c0,-1 0,-1 0,-1.5c0,-0.5 0,-1.5 0,-1.5c0,-0.5 0,-1 0,-2c0,0 0,-0.5 0,-2c0,0 0,-0.5 0,-1c0,-1 0,-1 0,-2c0,-1 0.385124,-1.513382 0.5,-2c0.256874,-1.08812 0.308655,-1.538055 0.5,-2c0.541199,-1.306564 1,-1.5 1,-2c0,0 0,-1 0,-2c0,0 0.229401,-0.846725 0.5,-1.5c0.191345,-0.461945 0,-1.5 0,-1.5c0,-0.5 0,-1 0,-2c0,-1 0,-2 0,-3c0,-1 0,-1.5 0,-2c0,-1 0,-1 0,-1.5c0,-0.5 0,-1.5 0,-1.5c0,-0.5 0,-1 0,-2c0,0 0,-0.5 0,-1c0,-1 0,-1 0,-1.5c0,-0.5 -0.229401,-1.346725 -0.5,-2c-0.191345,-0.461945 0,-1.5 0,-2c0,-0.5 0,-0.5 0,-1.5c0,0 0.788597,-0.72403 0,-2c-0.587784,-0.95105 -1,-1 -1,-2c0,-0.5 0,-1 0,-2c0,0 0,-1 0,-2c0,0 0,-0.5 0,-1c0,-1 0.472771,0.045105 0,2.5c-0.509186,2.643997 -0.540497,4.553497 -1,6.5c-0.513741,2.176254 -1,3 -1,4c0,0 0,1 0,1.5c0,0.5 0,0.5 0,1.5c0,1 0,1 0,2.5c0,0.5 0,1.5 0,2c0,0.5 0,0.5 0,1.5c0,0.5 0,1 0,1c0,1 0,1.5 0,2c0,1 0,2 0,2c0,1.5 0,2 0,3c0,0.5 0,1 0,2c0,1 0,2 0,2.5c0,0.5 0,2.5 0,2.5c0,1.5 0,2 0,3l0,0.5" id="svg_28" fill-opacity="null" stroke-opacity="null" stroke-width="9.5" stroke="#ffffff" fill="none"/>
  <path d="m117.25,42.5c0,0.5 0.074677,0.737133 0.5,1c0.951057,0.587784 0.5,1.5 1.5,2c0,0 1.149345,0.410538 2,2c0.471855,0.881676 0.538063,1.808659 1,2c1.306564,0.541195 1,1 1.5,1c0.5,0 1.346718,0.729401 2,1c0.461937,0.191341 1.521454,0.855106 2,1c1.725418,0.522415 1.5,1 1.5,1c1,1 2,1 2,1c0.5,0.5 1.292892,0.292892 2,1c0.707108,0.707108 -0.306564,1.458805 1,2c0.923874,0.382683 1.021454,0.855106 1.5,1c1.725418,0.522415 0.92598,1.114182 1.5,2.5c0.270599,0.653282 1,0.5 2,1.5c0,0 0.693436,1.458805 2,2c0.461945,0.191345 0.646454,0.646446 1,1c0.707108,0.707108 1,1 1,1c1,1 2,2 2,2c0,0 1.209427,0.209427 2,1c0.790573,0.790573 0.852737,1.173096 2,2c1.813995,1.307449 2.769348,2.303215 4,3c1.793961,1.015724 2.605835,0.857063 4,2c1.093674,0.896599 2,1 2,1c0.5,1 1,1 2,1c0.5,0 2.021454,0.85511 2.5,1c1.725418,0.522415 2.038055,0.808655 2.5,1c1.306564,0.541199 1,1 3,2c1,0.5 2,1 4,2c2,1 3.186005,1.692551 5,3c1.147263,0.826904 1.939346,0.939339 3,2c0.707108,0.707108 0.774582,1.477585 2.5,2c0.478546,0.14489 1.5,1 2.5,2c1,1 0.886871,1.91761 3.5,3c0.461945,0.191345 2,1 3.5,2c0,0 1.292892,0.292892 2,1c0.707108,0.707108 0.881973,0.381966 2,1.5c1.118027,1.118034 1.173096,1.35273 2,2.5c1.307449,1.813995 1.61731,2.076118 2,3c0.541199,1.306564 2,2 2,2c1,1 1.61731,1.076118 2,2c0.270599,0.653282 1.173096,0.85273 2,2c0.653732,0.906998 2,2 2,2c2,1 1.760086,1.161835 2.5,2c1.193085,1.351501 2.306915,0.648499 3.5,2c0.739914,0.838165 2,2 2,2c0.5,0.5 1.458801,0.693436 2,2c0.191345,0.461937 0.605835,0.857063 2,2c1.093674,0.896599 2.824432,1.097885 4,3c0.525726,0.850647 1.54895,2.412216 2.5,3c0.425323,0.262863 1.193436,1.458801 2.5,2c0.923874,0.38269 2.149353,0.474274 3,1c0.95105,0.587784 1.292892,2.292892 2,3c0.353546,0.353546 1.953171,0.551697 2.5,1c1.394165,1.142944 1.398499,1.12825 2,1.5c1.345001,0.831253 1.846725,2.229401 2.5,2.5c0.923874,0.38269 1,1 1,1c0.5,0 1.906326,0.103409 3,1c1.394165,1.142944 2.906326,1.103409 4,2c1.394165,1.142944 1.693436,1.458801 3,2c0.461945,0.191345 1,1 2,1c0,0 0.5,0 2,1c0,0 0,0 1,0c1,0 1.021454,-0.144897 1.5,0c1.725433,0.522415 2,1 3.5,2c0,0 0,0 0.5,0c0.5,0 0.884583,0.211792 1.5,1c1.268707,1.624924 2,1 2,1c0.5,1 1,1 1,2c0,1 0,1.5 0,2c0,0 0.191345,1.038055 0,1.5c-0.270599,0.653275 -1,0.5 -1,0.5c0,0 -1.5,0 -2,0c0,0 -1.646454,-0.353546 -2,0c-0.707092,0.707108 0,1 -1.5,1c-0.5,0 -0.5,0 -2.5,1c0,0 -1,0 -1.5,0c-0.5,0 -0.5,1 -0.5,1c-1.5,0 -2,0 -2,0.5c0,0.5 -1.074677,0.237137 -1.5,0.5c-0.95105,0.587784 -0.274582,1.477585 -2,2c-0.478546,0.144897 -1.085785,-0.414215 -2.5,1c-0.353546,0.353546 -0.54895,1.412216 -1.5,2c-0.425323,0.262863 -0.146454,0.646454 -0.5,1c-0.707108,0.707108 -1.61731,1.076126 -2,2c-0.541199,1.306564 -2,1.5 -2,2c0,0 -0.808655,1.038055 -1,1.5c-0.270599,0.653275 -1,0.5 -1,0.5c-1,1 -1.292892,1.292892 -2,2c-0.707108,0.707108 -1.737137,1.074677 -2,1.5c-0.587784,0.95105 -2,1.5 -2,1.5c-1,1 -1.292892,1.292892 -2,2c-1.060654,1.060654 -2,0 -3,1c-1,1 -1,1 -2,2c-1,1 -1.824432,0.097885 -3,2c-0.525726,0.850647 -1,2 -2,3c0,0 -0.093002,0.346268 -1,1c-1.147263,0.826904 -1,1 -2,2c-1,1 -2,2 -3,3c0,0 -2,1 -2,1c0,1 -1.038055,0.808655 -1.5,1c-0.653275,0.270599 -0.5,1 -0.5,1c-1.5,1 -2,1 -3,2c-1,1 -2.209427,1.209427 -3,2c-1.581146,1.581146 -2,1 -2,1c-1.5,1 -2,2 -3.5,2c-0.5,0 -1.542908,0.71022 -2.5,1c-1.725418,0.522415 -3.033005,1.438828 -4,2c-1.559235,0.904861 -2,1 -4,2c0,0 0,1 -1.5,1c-0.5,0 -0.5,1 -1.5,1c-1,0 -1,1 -1,1c-2,1 -3.5,1 -4,2c0,0 -1.646454,0.646454 -2,1c-0.707108,0.707108 -1.04895,1.412216 -2,2c-1.701309,1.051468 -3,1 -4,1.5c-1,0.5 -2,1.5 -2,1.5c-2,1 -2,1 -4,2c-1,0.5 -1.292892,1.292892 -2,2c-1.414215,1.414215 -1.737137,0.074677 -2,0.5c-0.587784,0.95105 -1.646454,1.146454 -2,1.5c-0.353546,0.353546 -0.292892,0.292892 -1,1c-1.060654,1.060654 -1,2 -1,3c0,0 -0.474274,1.149353 -1,2c-0.587784,0.95105 -1,1 -1,1c0,1 -1,1 -2,2c0,0 -0.114182,0.42598 -1.5,1c-0.653275,0.270599 -0.649353,0.474274 -1.5,1c-0.95105,0.587784 -0.737137,1.074677 -1,1.5c-0.587784,0.95105 -1.04895,0.912216 -2,1.5c-0.850647,0.525726 -2,1 -2,1c-1,1 -2,1 -2,1c-1,0.5 -1.074677,0.737137 -1.5,1c-0.95105,0.587784 -0.593002,0.846268 -1.5,1.5c-0.573639,0.413452 -0.292892,0.792892 -1,1.5c-0.707108,0.707108 -1.5,1 -2,1c0,0 -0.093002,1.346268 -1,2c-1.147263,0.826904 -0.646454,1.646454 -1,2c-0.707108,0.707108 -2,1 -2,1.5c0,0.5 -0.161835,1.260071 -1,2c-1.351501,1.193085 -0.693436,1.958801 -2,2.5c-0.923874,0.38269 -2.5,1 -3,1c0,0 -1.646454,0.646454 -2,1c-0.707108,0.707092 -1.412216,0.54895 -2,1.5c-0.262863,0.425323 -0.585785,-0.914215 -2,0.5c-0.707108,0.707092 -2,1 -2,1c-1.5,0 -2,0 -2,0c-2,0 -2,-1 -2,-1c0,-1 0.243126,-1.911865 0.5,-3c0.229752,-0.973236 0,-2 0,-3.5c0,-1.5 0,-2.5 0,-4c0,-1.5 -0.5,-2.5 -0.5,-3.5c0,-2 0,-2.5 0,-4c0,0 0,-1 0,-2c0,-0.5 0,-2 0,-2c0,-1 0,-2 0,-2c0,-0.5 0,-1 0,-2c0,-0.5 0,-1 0,-2c0,-1 -0.080093,-2.006454 0,-2.5c0.253273,-1.560715 1,-1.5 1,-2.5c0,-1 0,-1.5 0,-2c0,-1 0,-1.5 0,-3c0,-1 0,-2.5 0,-4c0,-2 0,-4 0,-4.5c0,-1.5 0,-2 1,-3.5c0,0 0,-1 0,-2c0,-0.5 0,-1 0,-2.5c0,-1.5 0,-3.5 0,-4.5c0,-1 0.426369,-1.086548 1,-1.5c0.906998,-0.653732 1.076118,-0.11731 2,-0.5c1.306564,-0.541199 1,-1 1.5,-1c0.5,0 1.5,0 2,0c1.5,0 2,-0.5 3.5,-0.5c0,0 0.614182,0.07402 2,-0.5c1.306564,-0.541199 3,-2 4,-2c1,0 2,-1 2,-1c1,-0.5 2.102631,-0.367538 4,-1c2.371704,-0.790573 4,-2 6,-3c2,-1 3.823746,-1.486252 6,-2c0.486618,-0.114883 2.206039,0.015732 4,-1c1.230652,-0.696777 3.03067,-1.912308 6,-3c2.52829,-0.926132 5.901215,-2.716446 9,-4c2.92157,-1.210144 5.614685,-2.165985 7.5,-3c1.648666,-0.729324 2.5,-1.5 3.5,-2c0,0 1.458801,-0.693436 2,-2c0.57402,-1.385818 0.5,-2 1,-3c1,-2 1,-2.5 1,-4c0,-1 0,-2 0,-2.5c0,-1.5 0,-2.5 0,-4c0,-2 0,-4.5 0,-6c0,-2 0,-4 0,-5.5c0,-2 -0.412216,-2.04895 -1,-3c-0.525726,-0.850647 -0.506454,-0.919907 -1,-1c-1.560715,-0.253265 -4,-1 -8,-1c-5,0 -11.506378,-0.040604 -18,1c-6.006134,0.962479 -11.180832,3.199142 -15.5,6c-4.195145,2.720428 -7.019287,5.558197 -9.5,9c-2.614899,3.627991 -3,6 -3,8c0,2 0,3 2,4.5c2,1.5 5.963837,3.61586 9,4.5c3.958679,1.152771 8,1 13,1c4,0 10.056808,-1.400375 14.5,-4c6.587494,-3.854218 12.546295,-7.519836 16,-12c4.240921,-5.501328 5.455276,-10.901184 5.5,-16c0.049026,-5.589951 -1.70546,-9.846191 -4,-11.5c-0.906998,-0.653732 -2,-0.5 -2,-0.5c-3,0 -7.10733,1.38353 -12,6c-6.985855,6.591492 -14.232742,11.733246 -20,17c-4.177155,3.814636 -6.692551,6.186005 -8,8c-0.826904,1.147263 -1,2 -1,2c0,1 0.846725,1.729401 1.5,2c1.385818,0.57402 4.099792,-0.871368 8,-4c3.59581,-2.88446 6.690277,-6.881516 8.5,-10c1.122345,-1.93399 0.840729,-2.389359 -2,-1c-3.238922,1.584106 -6.040695,5.964157 -10,10.5c-3.031403,3.472839 -7.256866,5.41188 -7,6.5c0.459503,1.946503 6.11824,-2.356522 11,-6.5c5.12854,-4.352936 9.325531,-7.716415 13,-10.5c2.873993,-2.177185 5,-4 4.5,-4c-2.5,0 -6.12532,3.41362 -10.5,7c-5.576645,4.571762 -11.763046,8.380554 -18,12c-3.867996,2.24469 -8.105835,3.857056 -9.5,5c-0.546829,0.448303 -0.43605,1.501678 1.5,1c4.983231,-1.29129 10.611298,-5.89682 19,-9c7.733994,-2.860992 16.215118,-4.360794 23,-7c5.2099,-2.026566 7.808655,-4.038055 8,-4.5c0.270599,-0.653275 -0.132996,-0.930496 -4,0.5c-6.291519,2.327393 -12.103302,6.812057 -19.5,11c-7.611145,4.309357 -16.104034,8.784164 -22.5,12c-5.597305,2.81427 -7.729401,3.846725 -8,4.5c-0.191345,0.461945 2.148392,0.753601 4,-0.5c4.985626,-3.375427 8.831284,-9.220535 14,-13c4.365707,-3.192276 10,-6.5 14,-8.5c1,-0.5 -1.46907,-0.460709 -4,1.5c-3.952652,3.062119 -8,8 -14,12.5c-6,4.5 -12.138336,8.259216 -17.5,11.5c-4.628517,2.797638 -7.269348,6.696777 -8.5,6c-1.793961,-1.015732 4.368828,-6.118683 8,-10c3.86467,-4.13089 8.308578,-6.563431 12,-9.5c0.55336,-0.440216 0.968948,-0.673477 0.5,-0.5c-4.323441,1.59935 -6.371613,7.105469 -10.5,12c-3.881889,4.60228 -8.321442,8.809006 -10,12c-1.253525,2.382996 -1.382683,3.076126 -1,4c0.541199,1.306564 1,1 2,1c2,0 5.908356,0.057785 9.5,-3c4.047043,-3.445496 7.91362,-7.62532 11.5,-12c2.285873,-2.78833 3.436417,-4.318008 2.5,-2c-1.509918,3.737671 -2.5,9 -4.5,14c-2,5 -3.79393,9.087433 -6,14c-1.832031,4.079666 -2.551178,7.160706 -4,10.5c-1.160431,2.674591 -2.493546,3.919907 -2,4c1.560715,0.253265 2.663589,-5.370911 5,-8.5c1.078583,-1.444519 2.782364,-2.183777 3,0.5c0.372604,4.594696 -1.49295,8.734009 -4,13.5c-1.678558,3.190994 -4.965332,6.103912 -6,10c-0.64167,2.416245 -2,5 -2,6.5c0,0.5 0,1.5 0,1.5c0.5,0 1.051315,0.316223 2,0c2.371704,-0.790573 3.052704,-4.987198 4,-9c1.059113,-4.48645 2.58522,-8.463089 4.5,-13c2.093933,-4.961395 3.959473,-9.529297 6.5,-13c1.476654,-2.017303 2.283661,-2.472931 2,-1c-0.509186,2.643997 -3,6 -5,8.5c-2,2.5 -3.729401,5.346725 -4,6c-0.191345,0.461945 -0.570068,1.17601 0.5,1.5c3.858154,1.168152 5.993454,-4.878555 6.5,-8c0.480545,-2.961258 -0.458801,-4.693436 -1,-6c-0.38269,-0.923874 -1.5,-1 -2,-1c-2,0 -4.053497,0.540497 -6,1c-2.176254,0.513748 -3.5,1 -4,1c-1,0 -1.729401,0.153275 -2,-0.5c-0.956711,-2.309692 -0.270683,-4.351334 -1,-6c-0.834007,-1.885315 0,-4.5 -1,-4.5c-1,0 -1.497551,4.925797 -2,10c-0.44342,4.478104 -1,9 -1,13c0,3.5 0,6 0,8c0,1 1,1 1,1c0,0 2,-5 2,-10c0,-5 0,-10 0,-14c0,-3 1,-5 0,-5c-2,0 0,6 0,10c0,5 0,9.5 0,12c0,2 -0.153282,3.729401 0.5,4c0.461937,0.191345 1.5,0 2,0c2.5,0 7.445938,-2.560806 12.5,-7c6.926926,-6.084213 11.200699,-12.288773 17,-18c4.289795,-4.22464 10.902222,-8.466965 17,-9.5c5.445099,-0.92247 8,-0.5 9,-0.5c0,0 -2.190277,1.881516 -4,5c-2.24469,3.867996 -3.723984,8.222733 -7,12c-2.779785,3.205124 -4.859497,5.655106 -6.5,7c-1.394165,1.142944 -1.819992,1.370407 -0.5,0.5c5.026413,-3.314392 7.752335,-9.659073 12,-16c3.784943,-5.650146 7.62532,-10.91362 12,-14.5c2.78833,-2.285873 3.872208,-4.203461 2,-3.5c-4.975449,1.869446 -9.20282,7.838882 -16,13.5c-7.68399,6.399704 -16,10 -24,14c-6,3 -11.356003,4.490814 -14,5c-1.963913,0.37822 -3.995163,1.069351 -3.5,1c3.604874,-0.504883 7.881821,-4.120773 13.5,-9.5c5.879105,-5.629044 10.134125,-11.369766 14.5,-16c4.130463,-4.380569 6.136002,-8.848251 9.5,-12c1.824387,-1.709274 2,-2.5 2,-3.5c0,0 -2,2 -6,6c-4,4 -9.192322,9.830322 -14,14c-3.777267,3.276016 -8.06601,4.877655 -10,6c-1.559235,0.904861 0.301453,1.391205 3,-1c3.45015,-3.057205 7.114426,-5.864807 9.5,-8c2.107544,-1.886337 4.270599,-3.346725 4,-4c-0.191345,-0.461945 -2.71167,-0.285873 -5.5,2c-4.37468,3.58638 -8.220535,8.831284 -12,14c-4.256378,5.820938 -7.097885,10.445862 -9,14c-1.055099,1.971481 -0.153275,2.729401 0.5,3c1.385818,0.57402 4.12529,0.054184 7.5,-1c3.201538,-1.000092 6,-3.5 10,-5.5c4,-2 6.873367,-2.685669 9,-4c0.95105,-0.587784 0.693085,-0.851501 -0.5,0.5c-0.739914,0.838165 -0.458588,1.060776 2.5,-1c5.580444,-3.886993 11.228851,-7.729614 16,-12c5.268845,-4.715851 10.871857,-9.643143 17,-15c5.88031,-5.140228 8.821075,-10.298691 12,-12c0.440842,-0.235931 -0.093002,-0.653732 -1,0c-1.147263,0.826904 1.22702,1.243622 5,-2.5c4.273941,-4.240677 8,-8.5 12,-12.5c2,-2 3.188751,-3.415283 4,-4c1.282684,-0.924515 0.25325,-0.628662 -4,2c-3.80423,2.351135 -8.072754,4.810242 -13.5,7c-4.566727,1.84256 -8.403656,3.287994 -14,5c-3.942749,1.206146 -8.5,3 -12.5,5c-2,1 -6.306915,2.648499 -7.5,4c-0.739914,0.838165 -0.5,1 2,-2c2.5,-3 5.268585,-7.6129 7.5,-13c1.57785,-3.80925 3.639389,-8.197189 6.5,-13c3.123169,-5.243637 5.659744,-10.211868 9.5,-16c2.764282,-4.166382 6,-6.5 8,-8c0,0 -0.321289,0.733749 -4,5.5c-4.405975,5.708527 -8.733246,12.732742 -14,18.5c-4.768295,5.221436 -7.714127,9.21167 -10,12c-0.896591,1.093674 0.014984,1.24437 2,1c4.092209,-0.503769 6.982193,-3.520447 11,-7c3.48465,-3.017822 7.458069,-5.664459 11,-8c2.247879,-1.482239 4.16156,-1.910706 3,0c-3.53273,5.811188 -6.882538,11.073761 -11,17.5c-3.890305,6.071701 -8.092514,11.42955 -11.5,16c-2.570862,3.448288 -5.977585,6.274582 -6.5,8c-0.144897,0.478546 1.953278,-0.57193 5,-2.5c4.927216,-3.118103 8.856522,-8.11824 13,-13c4.352936,-5.12854 7.418854,-8.418854 9,-10c0.790573,-0.790573 0.118484,-0.809723 -3,1c-3.867996,2.24469 -8.742828,5.344574 -14,9c-4.787399,3.328781 -11.435837,8.106171 -18,12c-6.934067,4.113251 -12.029968,6.945694 -17.5,10c-3.519623,1.965256 -5.11731,2.076126 -5.5,3c-0.541199,1.306564 2,1 5,1c2,0 4.718124,-0.219833 8,-3c3.237213,-2.74234 6.86882,-6.118683 10.5,-10c3.381592,-3.614532 6.192551,-8.813995 7.5,-7c0.826904,1.147263 -4.210052,4.850754 -7,9c-3.253601,4.838806 -6.905975,10.096283 -11,14c-5.379501,5.129425 -9.86882,8.118683 -13.5,12c-2.415421,2.581818 -5.5,5 -6.5,6c0,0 3.732727,-2.331345 8,-5.5c3.787094,-2.812103 8.099426,-5.812424 12,-8c4.114136,-2.307358 9.953873,-4.594086 16,-7.5c6.452347,-3.101166 13.963943,-6.085571 21,-9c4.97525,-2.060806 9.863266,-3.961151 9.5,-5.5c-0.16246,-0.688187 -2.152695,-0.819168 -4.5,0.5c-4.358826,2.449631 -7.723984,6.222733 -11,10c-3.706375,4.273499 -7.723984,8.222733 -11,12c-1.853195,2.136749 -4,3 -3,3c3,0 7.80188,-4.736649 13,-11c4.789764,-5.771317 8.432083,-11.045837 12.5,-17c3.442963,-5.039444 6.616364,-8.866623 9.5,-11.5c2.088577,-1.907318 2.409683,-4.389252 3,-4c2.247879,1.482239 -4,6.5 -6,10.5c-1,2 -3,3.5 -3,4c0,0 1.019028,0.055359 4,-1c4.027084,-1.425705 8,-3 12,-5.5c4,-2.5 9.370956,-5.365982 14,-8.5c4.985626,-3.375427 10.115799,-6.851501 14,-10c4.128952,-3.346893 6,-4 6,-4c0,0 -4,2 -7,5c-3,3 -6.540161,7.811798 -8.5,7c-0.923874,-0.38269 1.051178,-4.160706 2.5,-7.5c1.160431,-2.674591 3.538223,-3.971893 5,-6c0.924515,-1.282684 1.115875,-2.569473 0,-2.5c-1.799286,0.112015 -3.74675,2.371338 -8,5c-5.706345,3.526718 -12.080368,6.806396 -19.5,10c-6.575653,2.830322 -12.043716,5.896973 -14.5,7c-2.039825,0.916016 0,0.5 2.5,-2c3.5,-3.5 6.268951,-6.77977 9.5,-11c2.191818,-2.862854 4.366623,-6.116364 7,-9c1.907318,-2.088577 2.648499,-4.306915 4,-5.5c0.838165,-0.739914 0.897369,-2.132462 -1,-1.5c-4.743423,1.581146 -7.74675,6.371338 -12,9c-1.902115,1.175568 -3.986618,2.114883 -3.5,2c2.176254,-0.513748 6.01535,-2.982178 9.5,-6c4.017807,-3.479553 8.460144,-7.556747 12,-10c4.45105,-3.072159 7.306915,-4.648499 8.5,-6c0.739914,-0.838165 -0.679611,-2.106796 -4,-1c-4.743423,1.581146 -9.38855,6.194092 -14.5,9c-3.920303,2.152039 -7.646454,3.646454 -8,4c-0.353546,0.353546 0.058105,1.720825 4.5,1c6.242889,-1.013077 12.446823,-4.667252 18.5,-6.5c5.456268,-1.652023 9.963837,-2.61586 13,-3.5c1.97934,-0.576385 0.041687,1.050888 -3,3.5c-4.440399,3.575317 -9.741837,8.827179 -16,13.5c-5.778091,4.314362 -9.821075,8.298691 -13,10c-1.763351,0.94371 -1.996246,0.561096 -1.5,0.5c2.046112,-0.251892 4.810211,-2.218994 7.5,-5.5c2.285873,-2.78833 4.5,-6 6.5,-8c2,-2 3.270248,-3.026749 3.5,-4c0.256866,-1.08812 1.458801,-0.693436 2,-2c0.191345,-0.461945 -0.095413,-1.110352 -2,-0.5c-4.095978,1.312622 -6.89772,5.618118 -11.5,9.5c-2.447266,2.064194 -5.207108,3.292892 -4.5,4c0.707108,0.707108 2.940765,-1.095139 4.5,-2c1.93399,-1.122345 3.977585,-1.774582 4.5,-3.5c0.434677,-1.435638 0.633987,-2.726654 0,-3.5c-1.616364,-1.971649 -5.019333,-0.277405 -7,0c-3.604874,0.504883 -6.055649,1.822525 -9.5,3c-2.547821,0.870987 -4.5,1 -4.5,1c-2,1 -3.5,-0.5 -3.5,1c0,1.5 4.040131,-1.431351 7.5,-3.5c4.048538,-2.420609 6.186005,-4.192551 8,-5.5c1.147263,-0.826904 -0.16185,-1.433395 -2,-0.5c-3.481934,1.768082 -5.849442,5.656448 -10,9.5c-3.382294,3.132111 -5.5,5 -6,6c0,0 1.388107,0.7827 4,-1c3.225449,-2.201462 4.440948,-6.536392 6,-9c1.92807,-3.046722 2.248779,-5.462891 2.5,-8c0.295609,-2.985397 0,-6 0,-9c0,-2 0,-3 0,-4c0,0 -0.163589,1.870911 -2.5,5c-2.157181,2.889038 -4.458801,6.693436 -5,8c-0.191345,0.461945 1.696106,1.527847 5,0c3.272568,-1.513367 6,-3 8.5,-5c2.5,-2 4.324432,-2.097885 5.5,-4c0.262863,-0.425323 0,-1 -1,-1c-1,0 -3,0 -5,1c-2,1 -5.04895,2.412216 -6,3c-1.701309,1.051468 -2.191345,0.538055 -2,1c0.541199,1.306564 2.614182,2.57402 4,2c0.653275,-0.270599 2,-1 2,-1c1,0 2.151611,-1.384674 2.5,-2c1.015732,-1.793961 0.5,-3.5 0.5,-5.5c0,-1.5 -1,-2.5 -1,-2.5c-1.5,0 -2,0 -4,0c-1.5,0 -2.152237,-0.765366 -4,0c-1.306564,0.541199 -1.646454,0.646454 -2,1c-0.707108,0.707108 -0.046829,1.551697 0.5,2c1.394165,1.142944 2.5,1 4,1c2,0 4.649353,-0.410538 5.5,-2c0.707794,-1.32251 0,-2 0,-3.5c0,-0.5 -1.953888,-2.248108 -4,-2.5c-1.985016,-0.24437 -3.323746,-0.486252 -5.5,-1c-2.433121,-0.574379 -4.5,0 -6.5,0c-2,0 -4,-0.5 -6,-1c0,0 -1.538055,-0.191345 -2,0c-2.613129,1.08239 -3.774826,4.69812 -6,7c-3.203903,3.314362 -4.770248,4.973251 -5,4c-0.256866,-1.08812 1.869354,-2.128723 1,-5c-1.04483,-3.450851 -3.628296,-4.709427 -6,-5.5c-1.897369,-0.632454 -4.197296,-1.658524 -7.5,-0.5c-3.021088,1.059738 -7.91214,4.136169 -12.5,7c-5.892441,3.678192 -11.81752,7.571182 -16,11c-4.37468,3.58638 -8,6 -10,8c0,0 4.227325,0.215088 8,-4c4.270386,-4.771149 8.66655,-9.231293 10,-13.5c1.054184,-3.37471 1.07402,-6.114182 0.5,-7.5c-0.270599,-0.653282 -0.514984,-0.74437 -2.5,-0.5c-2.046112,0.251884 -4.526047,1.309143 -8,4.5c-3.682388,3.382309 -6.46727,7.688812 -10,13.5c-2.323105,3.821411 -4,7.5 -4,8.5c0,1.5 -0.923874,2.61731 0,3c1.306564,0.541199 2,-4 2,-7.5c0,-3.5 1,-5.5 0,-5.5c-3,0 0.610916,6.03746 0,11c-0.503769,4.092209 -2,8 -2,10.5c0,1.5 2.013382,2.385117 2.5,2.5c2.176254,0.513748 4,1 6,1c2.5,0 4.5,0 6.5,0c2,0 4.113663,-0.892456 6,-3c2.135193,-2.385574 4.496231,-5.907791 5,-10c0.366547,-2.977524 0,-5 0,-6c0,0 -2,0 -3.5,0c-2,0 -2.5,0 -4.5,1c-1,0.5 -1.978546,1.144897 -1.5,1c1.725418,-0.522415 3.292343,-2.772675 6.5,-5c3.311157,-2.299194 8.882858,-6.181549 15,-10c5.892441,-3.678192 11.939453,-7.103302 17,-10c5.437241,-3.112312 8.881516,-5.690277 12,-7.5c0.966995,-0.561172 2.846725,-2.229401 3.5,-2.5c1.385818,-0.574028 2.5,0 3.5,-1c0,0 -1.849442,1.156456 -6,5c-3.382294,3.132111 -8.604645,6.516762 -15,11c-5.687851,3.987274 -10.868286,6.288589 -15,8c-2.92157,1.210144 -6,-1 -6,1c0,2 5.371338,-0.74675 8,-5c2.351135,-3.80423 4.44841,-7.805649 6,-12c1.430496,-3.866997 2,-6.5 2.5,-8.5c0.5,-2 0.5,-3.5 0.5,-4.5c0,-1.5 0,-3 0,-3.5c0,-0.5 -1,-0.5 -3,-0.5c-2,0 -5.902695,1.18573 -11.5,4c-6.395966,3.215828 -12.656876,5.579697 -18.5,8c-6.197571,2.567116 -12,5 -14,6c-1,0.5 0,1 0.5,1c1.5,0 3.616486,-0.794861 5.5,-2c2.696793,-1.725494 5.864807,-4.614426 8,-7c3.772675,-4.21508 8.21167,-7.714119 11,-10c3.281006,-2.689789 4.587784,-4.048943 4,-5c-0.262863,-0.425323 -4.119858,3.383255 -8.5,8c-4.629883,4.879974 -8.548431,9.95813 -12,14c-2.53595,2.969666 -4.243134,4.91188 -4.5,6c-0.229752,0.973251 2.132004,1.24469 6,-1c4.677719,-2.714584 9.900421,-5.709953 15,-8c4.912567,-2.206062 9,-3.5 11,-4c0,0 -1.652695,-0.31916 -4,1c-4.358826,2.449623 -9.429901,6.107903 -14,9c-4.927216,3.118103 -12.009186,3.356003 -11.5,6c0.283661,1.472931 4.571793,-0.691238 9.5,-2c6.112686,-1.623306 14.478439,-4.105324 24,-6c7.982895,-1.588501 14.48436,-3.558586 20,-5c3.989136,-1.042488 6.279007,-2.038818 9,-4c1.147263,-0.826904 1,-1 1,-1c-4,1 -7.826157,2.310898 -13,5c-4.369492,2.271034 -8.323746,5.486259 -10.5,6c-0.486618,0.114876 -0.29422,-0.702003 1.5,-3c1.740646,-2.229385 4,-5 6,-8c2,-3 4.113663,-5.392456 6,-7.5c2.135193,-2.385574 2.5,-3.292892 2.5,-4c0,-0.707108 -2.578461,-0.742226 -6,0.5c-4.628799,1.680534 -9.468903,4.07959 -14.5,6c-5.467575,2.087013 -9.869873,4.247231 -13.5,6c-2.424728,1.170761 -5.257034,1.177261 -4.5,2c1.823166,1.981422 7.058029,-4.418533 12,-8c4.04863,-2.934052 8.617706,-5.867889 12,-9c3.112915,-2.88266 5.707108,-4.292892 5,-5c-1.767761,-1.767769 -6.546585,0.898323 -11,3c-6.066574,2.862968 -12.712006,6.981628 -18,8c-3.436844,0.661873 -3.948685,0.316231 -3,0c2.371704,-0.790573 3,-3 4,-5.5c1,-2.5 2.004059,-5.824661 3,-9.5c1.054321,-3.890808 2.248779,-7.962898 2.5,-10.5c0.147812,-1.492699 0,-2.5 -1.5,-1.5c-3,2 -5.166031,3.734032 -8.5,6c-2.647873,1.799652 -4.5,4 -6.5,5c-2,1 -0.699585,1.372116 0,0.5c1.289963,-1.608101 0.5,-4 0.5,-6c0,-1.5 -0.5,-2.5 -2.5,-4c0,0 0,0 -1.5,0c-0.5,0 -2.028137,0.618324 -2.5,1.5c-0.850647,1.589462 -2,2 -2,1c0,-3 0,-7 0,-12c0,-4.5 -2,-9 -2,-12c0,-2 -0.585785,-3.414215 -2,-2c-1.414215,1.414215 0,5 0,8c0,3.5 0,7 0,11c0,4 0,7 0,10.5c0,2.5 0,2.5 0,2c0,-4 -2.977737,-7.682846 -4,-12.5c-0.726578,-3.423752 -1.746727,-5.939278 -2,-7.5c-0.080093,-0.493546 0,-1.5 0,1.5c0,5 0.850983,10.0812 0,14.5c-0.509186,2.643997 -1,4.5 -1,4.5c1,1 2.189377,-0.416039 3,-2.5c1.319611,-3.392441 2,-8 2,-11.5c0,0 -0.965332,1.103912 -2,5c-1.154999,4.349251 -1.408775,15.029198 -2,21c-0.502449,5.074203 -1,9 -1,11.5c0,1.5 1,-1.5 1,-6.5c0,-5 0,-9.5 0,-12c0,-1.5 0,-1 0,3c0,4 0,9 0,14c0,4 0.243126,6.911873 0.5,8c0.229752,0.973251 0.5,1 1.5,1c0.5,0 2.647736,-2.943413 4.5,-8c2.175385,-5.938667 4.196136,-13.454346 5.5,-19.5c1.178528,-5.464531 4.5,-10.5 2,-10.5c-3,0 -0.977737,7.682846 -2,12.5c-1.660736,7.825722 0,10.5 0,12.5c0,1 -0.394104,1.692291 0,2c1.624924,1.268707 4.51268,-4.339798 6,-10c1.545883,-5.883049 2.278931,-11.071724 4,-16c0.887741,-2.54203 1.305008,-2.988358 1,1c-0.501465,6.557327 -2.497559,12.925797 -3,18c-0.39415,3.98053 -1,6.5 -1,8c0,0.5 1.047928,-1.489616 2,-6c1.053131,-4.989082 1,-9.5 1,-13c0,-1 0.5,-2 0,-2c0,0 -2,0 -4,0c-2,0 -4,1 -6,2c-2,1 -2.678635,2.388512 -2,1.5c1.547531,-2.026115 0.5,-6.5 0.5,-10.5c0,-5 0.419006,-9.107002 -0.5,-13c-0.513748,-2.176254 -2,-4 -2,-5c0,-1 -0.130753,2.969566 -1,7c-1.178528,5.464531 -1,9 -1,12c0,1.5 0,3 0,4c0,0 0,0 0,-3c0,-5 0,-9 -2,-13.5c-2,-4.5 -4.20681,-8.312656 -6,-10.5c-1.142937,-1.394161 -1.737137,-2.425327 -2,-2c-0.587784,0.951057 1,3 1,5c0,3.5 0,6 0,8c0,1.5 1,2 1,3c0,0 0.743126,0.088127 1,-1c0.574379,-2.433121 2,-8 0,-8c-4,0 0.912987,9.532425 3,15c1.92041,5.031105 3.693436,8.458801 5,9c0.923874,0.382683 1.013382,0.114876 1.5,0c2.176254,-0.513741 3.5,-4.5 4,-8.5c0.5,-4 1.322525,-8.555649 2.5,-12c0.870987,-2.547821 2.412216,-5.048943 3,-6c0.262863,-0.425327 0.098694,-0.933189 1,-0.5c2.885574,1.386879 2.885101,6.372017 5.5,10c2.067261,2.868172 4.417526,5.056648 6.5,8c1.443924,2.040848 3,4 3,4c0.5,0.5 1.237762,0.203453 2,-4c0.713699,-3.935814 0,-7.5 0,-9c0,-0.5 -0.440536,0.107697 0.5,3c1.037231,3.18969 2.5,7 4,11c1.5,4 2.565414,6.978981 3.5,10c1.07579,3.477448 1.477585,5.274574 2,7c0.28978,0.957092 -1,3 0,3c1,0 -1.75531,-4.132004 -4,-8c-1.809723,-3.118477 -2.803513,-6.08786 -4,-8.5c-1.295532,-2.611816 -2.789856,-6.578438 -4,-9.5c-1.711411,-4.131714 -2,-6 -3,-6c-1,0 -0.511261,4.029968 -1,8c-0.503769,4.092216 -1,7 -1,8c0,0 0.149353,1.525734 1,1c0.95105,-0.587784 0.5,-1.5 0.5,-4c0,-3 -2.071182,-7.817513 -5.5,-12c-4.482971,-5.468353 -9,-9 -12.5,-12c-3.5,-3 -4.201309,-5.051464 -2.5,-4c3.80423,2.351143 4.439209,8.803543 6.5,14c1.924393,4.852493 2.745407,9.957123 3.5,15c0.743622,4.969612 0.087601,10.017036 0.5,15c0.250854,3.031021 0.912216,5.548943 1.5,6.5c0.262863,0.425323 -0.242096,-0.719551 2.5,-3.5c3.236893,-3.282158 7.31691,-6.834663 13.5,-10c4.383423,-2.244026 8.517212,-2.933502 12.5,-4c3.516174,-0.941551 6.5,-1 9.5,-1c2,0 2.149353,-0.525734 3,0c1.902115,1.175568 1.962769,4.81031 3,8c0.940536,2.892303 1.459366,6.172539 2.5,8.5c1.020432,2.282265 2,3.5 3.5,6.5c1,2 1.381973,4.381966 2.5,5.5c1.118027,1.118034 1.04895,1.912216 2,2.5c0.425323,0.262863 2.211151,0.894424 4,0c2.236069,-1.118034 2.248108,-3.953896 2.5,-6c0.122177,-0.992508 1,-2 1,-2.5c0,-0.5 1.824432,0.097885 3,2c1.314331,2.126625 2.45105,2.912216 1.5,3.5c-1.701309,1.05146 -4,0 -6.5,0c-2,0 -4,0 -6,0l-2,0l-2,0" id="svg_29" fill-opacity="null" stroke-opacity="null" stroke-width="9.5" stroke="#ffffff" fill="none"/>
  <path d="m203.25,129.5c-1.5,0 -2,1 -2,1c-2,1 -2,1 -4,2c0,0 -0.22403,-0.788589 -1.5,0c-0.95105,0.587784 -0.649353,0.474274 -1.5,1c-0.95105,0.587784 -1,1 -1,1.5c0,0.5 -1.729401,1.346725 -2,2c-0.191345,0.461945 0,0.5 0,1.5c0,0.5 -1,1 -1,1c-1,1 -0.808655,1.538055 -1,2c-0.541199,1.306564 -1,1.5 0,2c0,0 0.346725,-0.729401 1,-1c0.923874,-0.38269 1,0 3,-1c0,0 0.346725,-0.729401 1,-1c0.923874,-0.38269 1.074677,0.262863 1.5,0c0.95105,-0.587784 0.5,-1 0.5,-1.5c0,-0.5 0,-1.5 0,-1.5c0,-0.5 0,-1 0,-2c0,0 0,-0.5 1,-2c0,0 0.021454,-0.855103 0.5,-1c1.725418,-0.522415 1.5,-1.5 2,-1.5c0.5,0 1.5,0 2,0c0.5,0 1.5,-0.5 1.5,-0.5l0.5,0" id="svg_30" fill-opacity="null" stroke-opacity="null" stroke-width="9.5" stroke="#ffffff" fill="none"/>
  <path d="m131.75,249c-0.5,-0.5 0.051697,-1.453171 0.5,-2c1.142944,-1.394165 1.074677,-2.237137 1.5,-2.5c0.95105,-0.587784 1.574677,-1.737137 2,-2c0.95105,-0.587784 1.5,-1 1.5,-1.5c0,0 0.5,0 1,0c1,0 1.5,0 2,0c1,0 1.5,0 3,0c0.5,0 1.412216,0.45105 2,-0.5c0.525726,-0.850647 0,-1.5 0,-2c0,-1 0,-1 0,-1.5c0,-0.5 -0.191345,-1.538055 0,-2c0.270599,-0.653275 2,-0.5 2,-0.5c0.5,-1 1,-1.5 2,-1.5c0,0 0.346725,-0.229401 1,-0.5c0.923874,-0.38269 1.426361,-1.086548 2,-1.5c0.906998,-0.653732 0.65538,-0.767456 1.5,-1.5c1.194473,-1.035965 1.5,-1 2,-1l1.5,-1l0,-0.5l0.5,0" id="svg_31" fill-opacity="null" stroke-opacity="null" stroke-width="9.5" stroke="#ffffff" fill="none"/>
  <path d="m257.75,156.5c0.5,0 1.5,0 1.5,0c0,-1 -1.5,-2 -2,-2c0,0 -1.5,0 -2,-1l0,-0.5" id="svg_32" fill-opacity="null" stroke-opacity="null" stroke-width="9.5" stroke="#ffffff" fill="none"/>
  <path d="m131.25,130.5c0,0 0.191345,0.538055 0,1c-0.541199,1.306564 -1.5,2 -1.5,2c0,1 -0.5,1.5 -0.5,2c0,1 0,2 0,3c0,0.5 0,1 0,1c0,0 0,-0.5 0,-1c0,-1 -0.122345,-1.56601 1,-3.5c0.904861,-1.559235 1,-2 1.5,-2.5l0,-1" id="svg_33" fill-opacity="null" stroke-opacity="null" stroke-width="9.5" stroke="#ffffff" fill="none"/>
  <path d="m116.243622,40.410873c0.249451,0 0.498901,0 0.997803,0.498901c0,0 0.249451,0.498898 0.498901,0.498898c0.498894,0 0.545982,0.353046 0.748344,0.498901c0.639931,0.461235 0.249451,0.997799 0.249451,1.496696c0,0.498901 0,0.997799 0,1.4967c0,0 0.498901,0.498901 0.498901,0.748348c0,0.249451 0,0.748352 0,0.748352c0,0.249451 0.037254,0.367752 0.249451,0.498898c0.47448,0.293247 0.249451,0.748352 0.748352,0.997799c0,0 0.249443,0.997799 0.249443,0.997799c0.249451,0.498901 0.058533,1.035778 0.249451,1.4967c0.270004,0.651848 0.117058,1.073753 0.498901,1.995598c0.270004,0.651848 0.906364,1.502308 0.997803,2.245049c0.125664,1.020805 0.997795,1.746151 0.997795,2.74395c0,0.997799 0.57341,1.701515 0.997803,2.494499c0.470818,0.879734 0.741493,1.907669 0.997795,2.993397c0.229248,0.971107 0,1.995598 0.249451,2.494499c0.249451,0.498901 0.748352,1.247246 0.748352,1.995598c0,0.498901 0.603386,1.311256 0.997795,2.494499c0.236649,0.709953 0.086357,1.922127 0.498901,2.494499c0.652275,0.904999 0.480949,1.649124 0.997795,2.245049c0.365463,0.421387 0.498901,0.748344 0.748352,1.247246c0.249451,0.498901 0.748352,0.997803 0.748352,0.997803c0,0.748344 0.704559,1.271667 0.997803,1.746147c0.131149,0.212196 0.212708,0.791534 0.498901,0.997803c0.452499,0.326141 0.498901,0.748337 0.748352,0.997795c0.249435,0.249451 0.249435,0.249451 0.748337,0.748352c0,0 0,0.498901 0,0.498901c0,0.498894 0,0.997795 0,1.746147c0,0.249451 0,0.997795 0,1.247246c0,0.498901 0,0.997803 0,0.997803c0,0.498901 -0.536148,0.866661 -0.748337,0.997795c-0.474487,0.293243 -0.249451,0.997803 -0.249451,1.496704c0,0.498894 0,0.997795 0,1.247246c0,0.249451 0,0.748352 0,0.997803c0,0.249451 -0.116653,1.047417 0.249451,1.746147c0.578842,1.10479 1.35173,1.81015 1.74614,2.993401c0.315536,0.946594 0.997803,1.995598 1.496704,2.993393c0.498901,0.997803 1.101547,1.437111 1.496689,2.245049c0.346573,0.708618 0.949326,1.359116 1.995605,1.746155c0.96463,0.356834 1.496704,0.997795 2.494492,1.496696c0.997803,0.498901 2.47464,1.538589 3.49231,1.995598c1.225433,0.550301 2.433899,1.243988 3.991196,1.496696c0.984924,0.159828 2.173203,0.743767 3.492294,0.997803c0.979797,0.18869 1.746155,0 2.494492,0c0,0 0.249451,0 0.498901,0c0.498901,0 0.748352,0 1.496704,0c0.249451,0 1.14682,-0.524574 1.995605,0c0.474487,0.293243 0.997787,0.498901 1.496689,0.498901c0.498901,0 0.523331,0.20565 0.997803,0.498894c0.424393,0.262283 0.520309,-0.144577 0.997803,0c0.860809,0.260635 1.515671,0.902344 1.74614,0.997803c1.303696,0.540009 1.592773,1.589493 2.245056,2.494499c0.61882,0.858559 1.496704,1.496696 1.99559,1.995598c0.498901,0.498909 0.498901,0.498901 0.748352,0.498901c0.249451,0 0.748352,0.249451 0.748352,0.498901c0,0.498894 0,0.748344 0,0.997795c0,0.748352 0,0.997803 0,1.496696c0,0.249451 0,0.498901 0,0.498901c0,0.498901 0,0.498901 0.249451,0.498901c0.249451,0 0.748352,0 0.748352,0c0,0 0.704559,-0.225029 0.997803,0.249451c0.131149,0.212196 0.57341,-0.044624 0.997787,0.748352c0.235397,0.439865 0.498901,0.997795 0.997803,0.997795c0,0 -0.159225,0.32563 0.498901,1.496696c0.611069,1.087311 0.922287,2.218109 1.746155,3.492302c0.488358,0.75528 0.977249,1.343758 1.247238,1.99559c0.095459,0.230469 0.498901,0.498901 0.498901,0.997803c0,0.249451 0,0.498901 0,0.498901c0.249451,0.498901 0.077515,0.768372 0.249451,1.496704c0.128159,0.542862 0.656921,1.252853 0.748352,1.99559c0.125671,1.020813 0.768555,1.523392 0.997803,2.494507c0.256302,1.085739 0.997803,1.99559 1.247253,2.743942c0.249451,0.748352 0.640945,1.779327 0.997787,2.743958c0.193527,0.523132 0.748352,1.496689 0.748352,1.99559c0,0.498901 0,0.498901 0,0.997803c0,0.249451 0,0.498901 0,0.997803c0,0.498901 -0.748352,0.997787 -0.748352,1.247238c0,0.249451 -0.249451,0.748352 -0.249451,0.997803c0,0.249451 -0.748337,0.748352 -0.997787,1.247253c0,0 0,0.498901 0,0.997803c0,0.498901 -0.052795,0.926468 -0.748352,1.496689c-0.272812,0.223663 -0.249451,0.498901 -0.249451,0.498901c0,0.498901 0,0.748352 0,0.997803c0,0.498901 0,0.748352 0,0.997803c0,0 0,0.498901 -0.498901,0.498901c-0.249451,0 -0.498901,0 -0.498901,0.249451c0,0.249451 -0.997803,0.249451 -0.997803,0.249451c-0.498901,0 -0.997787,0.498886 -0.997787,0.498886c-0.498901,0 -0.628662,0.080734 -0.997803,0.498901c-0.59523,0.674271 -0.850861,1.170517 -1.995605,1.995605c-0.904999,0.652283 -1.99559,0.997803 -2.993393,1.496704c-0.997803,0.498886 -1.674316,1.242661 -2.993393,1.496689c-0.979797,0.18869 -2.993408,0.498901 -4.739548,0.498901c-1.746155,0 -3.067001,0.485184 -5.238449,0.997803c-0.971115,0.229248 -1.695511,0.06398 -1.995605,0.249451c-0.671021,0.414719 -0.997803,0.249451 -1.74614,0.249451c-0.249451,0 -0.997803,0 -1.247253,0c-0.748352,0 -0.997803,0 -1.995605,0c-0.498901,0 -0.997787,0 -1.496689,0c-0.249451,0 -0.498901,0 -0.498901,0c-0.748352,0 -0.997803,0 -0.997803,0c-0.498901,-0.249451 -0.671875,-0.363907 -0.997803,-0.498901c-0.691391,-0.286377 -0.997803,0 -0.997803,0c-0.498886,-0.498901 -0.748337,-0.748352 -0.997787,-0.997803c0,0 -0.869644,0.043961 -0.997803,-0.498901c-0.057312,-0.242783 -0.498901,-0.249451 -0.748352,-0.249451c-0.249451,0 -0.541702,0.4561 -1.247253,-0.249451c-0.352783,-0.352783 -0.498901,-0.498901 -0.748337,-0.498901l-0.249451,0l0,0l-0.748352,-0.249435" id="svg_34" fill-opacity="null" stroke-opacity="null" stroke-width="9.5" stroke="#ffffff" fill="none"/>
  <path d="m176.610489,168.129196c-0.249451,0 -0.386444,0.238266 -1.247253,0.498886c-0.238754,0.072281 -0.785614,-0.131149 -0.997803,0c-0.474487,0.293243 -0.402573,0.323532 -0.997803,0.997803c-0.369141,0.418167 -0.772751,0.704559 -1.247238,0.997803c-0.848785,0.524582 -1.343765,0.727798 -1.995605,0.997803c-0.460922,0.190918 -0.748352,0.498901 -0.997803,0.498901c0,0 -0.748337,0.249451 -0.997787,0.498901c0,0 -0.498901,0.498886 -0.997803,0.498886c0,0 -0.536163,-0.131149 -0.748352,0c-0.474487,0.293243 -0.523315,0.704559 -0.997803,0.997803c-0.636581,0.393433 -1.247253,0.498901 -1.247253,0.498901c-0.748337,0.498901 -1.476822,0.540802 -2.494492,0.997803c-1.225449,0.550308 -2.536453,0.894241 -4.490097,1.746155c-1.533875,0.668869 -3.446289,1.494812 -5.4879,1.74614c-1.485474,0.182877 -3.431702,0.745087 -4.988998,0.997803c-1.23114,0.199783 -2.132584,0.238266 -2.993393,0.498901c-0.477493,0.144577 -1.496704,0.498901 -2.494492,0.498901c-0.997803,0 -1.995605,0.498901 -2.993408,0.498901c-0.997803,0 -1.74614,0 -1.99559,0c0,0 0,0 -0.498901,0c-0.498901,0 -1.305374,0.102341 -2.245056,-0.498901c-1.345413,-0.860855 -2.18187,-1.838791 -3.242844,-2.494507c-0.948959,-0.586487 -1.725601,-0.345963 -1.995605,-0.997803c-0.095459,-0.230453 -0.64502,0.103348 -0.997795,-0.249435c-0.176392,-0.176392 0,-0.748352 0,-1.746155c0,-0.997803 0,-1.247253 0,-1.995605c0,-0.498901 0,-0.997787 0,-0.997787c0,-0.249451 -0.748344,-0.498901 -0.997795,-0.498901c0,0 0.441177,0.152893 0.997795,1.496689c0.787193,1.900436 0.844414,3.086212 1.496696,3.991196c0.412552,0.572372 1.044205,0.671661 1.496704,0.997803c0.572372,0.412537 1.399673,0.480957 1.995605,0.997803c0.421387,0.365463 1.247238,0.498901 2.245041,0.997803c0.997803,0.498901 2.656006,0.741501 3.741745,0.997803c0.971115,0.229248 2.245056,0.498886 2.993408,0.498886c0.997787,0 1.247238,0 1.496689,0c0.498901,0 0.498901,0 0.997803,0c0.498901,0 1.496704,0 1.995605,0c0.748337,0 1.496689,0 1.99559,0c0.748352,0 1.496704,0 1.746155,0c0.249451,0 0.748352,0 0.997803,0c0.249435,0 0.88533,0.238266 1.74614,0.498901c0.238754,0.072281 0.997803,0.498901 1.247253,0.498901c0.748352,0 0.786331,0.307983 1.247253,0.498901c0.65184,0.270004 0.711594,0.542084 0.997787,0.748352c0.452499,0.326141 0.498901,0.249451 0.498901,0.748352c0,0.249451 0,0.498901 -0.498901,0.498901c-0.249451,0 -1.300034,-0.427582 -1.99559,-0.997803c-1.091263,-0.894623 -2.03804,-2.321198 -2.494507,-3.242844c-0.708893,-1.43132 -0.584946,-2.81427 -0.997787,-3.991196c-0.528702,-1.507217 -1.479416,-2.795807 -1.995605,-4.739548c-0.576233,-2.169846 -0.997803,-4.490097 -0.997803,-6.984604c0,-1.99559 -0.872757,-4.227356 -0.997803,-5.986801c-0.106094,-1.49292 0,-2.494492 0,-3.492294c0,-0.748352 0,-1.74614 0,-2.494492c0,-0.997803 0,-1.496704 0,-2.494507c0,-0.997787 0,-1.99559 0,-2.743942c0,-0.748352 0,-1.746155 0,-2.245056c0,-0.498886 0.286377,-1.054749 0,-1.74614c-0.404999,-0.977768 -0.997787,-0.748352 -0.997787,-1.247253c0,-0.498901 -0.997803,-0.997803 -0.997803,-1.496704c0,-0.498886 0,-0.997787 0,-1.247238c0,-0.748352 0,-0.997803 0,-1.746155c0,-0.997803 0,-1.247253 0,-1.99559c0,-0.498901 0,-0.997803 0,-0.997803c0,-0.249451 0,-0.498901 0,-0.997803c0,-0.249451 -0.190918,-0.53688 0,-0.997803c0.134995,-0.325928 0.997803,-0.997803 0.997803,-0.997803c0.249451,-0.249435 0.249451,0.748352 0.249451,1.746155c0,1.247253 0,1.995605 0,2.245056c0,0.498886 -0.151917,0.940292 0.748337,1.496689c1.342041,0.829437 3.259033,1.453308 5.986801,2.494507c2.510025,0.958084 5.888229,2.710449 8.980194,3.991196c2.915131,1.207489 5.365173,2.289658 7.48349,3.741745c1.606964,1.101563 3.416687,2.416367 4.490097,4.240646c0.920959,1.565186 1.478134,3.397659 1.995605,4.988998c0.469238,1.442978 0.997803,2.993393 1.496704,3.991196c0.748352,1.496704 1.496689,2.993393 2.494492,4.490097c0.997803,1.496704 1.995605,3.492294 2.993393,4.988998c0.997803,1.496704 1.638565,3.188644 2.245056,4.988998c0.328354,0.974686 0.87265,2.479019 0.997803,3.991196c0.123444,1.491608 0,3.492294 0,5.238449c0,2.245041 0.154999,4.74437 0,7.234039c-0.124969,2.007248 -0.872833,3.979553 -0.997803,5.986801c-0.093002,1.493805 0.098328,2.499344 0,3.492294c-0.125336,1.265762 0.227844,2.339996 -0.249451,3.492294c-0.404999,0.977768 -0.840042,1.522308 -0.997803,1.995605c-0.394409,1.183243 -1.210114,1.617752 -1.74614,2.743942c-0.442017,0.92868 -0.342087,1.682983 -0.997803,2.743958c-0.293243,0.474487 -0.476364,1.324081 -0.997803,2.245041c-0.506744,0.895004 -0.461777,2.116669 -0.997803,3.242844c-0.442032,0.92868 0.132385,2.071564 -0.249451,2.993408c-0.404999,0.977768 -0.997787,1.99559 -0.997787,2.743942c0,1.247253 -0.883179,1.759506 -0.997803,2.245056c-0.256302,1.085724 -0.997803,1.496689 -0.997803,1.496689c0,0.249451 -0.498901,0.498901 -0.997803,0.498901c0,0 -0.75502,0.441589 -0.997803,0.498901c-1.085724,0.256302 -1.521103,0.704559 -1.99559,0.997803c-0.848785,0.524582 -0.953842,0.370743 -1.496704,0.498901c-0.48555,0.114624 -0.345963,0.228897 -0.997803,0.498901c-0.230453,0.095459 -0.536865,-0.190918 -0.997787,0c-0.65184,0.270004 -1.2267,0.345947 -1.496704,0.997787c-0.095459,0.230469 -0.869644,0.454941 -0.997803,0.997803c-0.057312,0.242783 0,0.498901 0,0.498901c-0.498901,0.498901 -0.57196,0.821411 -0.748352,0.997803c-0.176392,0.176392 -0.249451,0.498901 -0.249451,0.997803c0,0 -0.498886,0.498901 0,0.498901c0,0 0.306412,0.286377 0.997803,0c1.303696,-0.540009 1.093735,-2.082779 1.995605,-3.49231c0.860855,-1.345413 1.99559,-2.993393 2.993393,-4.490097c0.997803,-1.496689 2.255096,-2.731522 3.492294,-3.741745c1.509094,-1.232224 2.850784,-2.350647 3.991196,-3.741745c1.341934,-1.636902 2.964859,-3.267715 4.490097,-4.988998c1.192978,-1.346313 2.050964,-2.914978 3.49231,-3.991196c1.561096,-1.165634 2.314255,-2.216599 3.492294,-2.993393c1.121475,-0.739487 2.522751,-1.455566 3.991196,-2.494507c1.018188,-0.720383 2.088409,-1.343307 2.993393,-1.99559c1.144745,-0.825089 1.569946,-1.927383 2.494507,-2.993408c0.8172,-0.94223 1.598892,-1.875885 2.494492,-2.743942c1.146942,-1.111664 1.995605,-1.99559 2.993408,-2.993393c0.997803,-0.997803 1.569931,-2.176834 2.494492,-3.242859c0.8172,-0.94223 1.694992,-2.050522 2.494507,-2.743942c0.94223,-0.8172 2.088394,-1.592773 2.993393,-2.245056c1.144745,-0.825073 1.848648,-1.669403 2.993393,-2.494492c0.904999,-0.652283 1.324585,-1.081985 1.995605,-1.496704c0.600174,-0.370926 1.17308,-1.132843 1.99559,-1.496689c0.940598,-0.416077 1.344788,-0.690857 2.245056,-1.247253c0.671021,-0.414719 1.695496,-0.812332 1.99559,-0.997803c0.671021,-0.414719 0.767334,-0.153992 0.997803,-0.249451c0.977768,-0.404999 0.887604,-1.127335 1.746155,-1.74614c0.452499,-0.326141 1.044205,-0.921112 1.496689,-1.247253c0.572372,-0.412552 1.072311,-1.202621 1.496704,-1.995605c0.235413,-0.439865 0,-0.498901 0.249451,-0.997803c0.249451,-0.498886 0.748352,-0.498886 0.748352,-0.997787l0.498901,-0.498901l0.498901,-0.498901l0,0" id="svg_35" fill-opacity="null" stroke-opacity="null" stroke-width="9.5" stroke="#ffffff" fill="none"/>
  <polyline stroke-linecap="round" id="svg_38" points="139.75,114.5 139.75,114.5 139.75,114.5 " fill-opacity="null" stroke-opacity="null" stroke-width="9.5" stroke="#ffffff" fill="none"/>
 </g>
</svg>